<?xml version="1.0" encoding="UTF-8"?>
<!DOCTYPE svg PUBLIC "-//W3C//DTD SVG 1.1//EN" "http://www.w3.org/Graphics/SVG/1.1/DTD/svg11.dtd">
<!-- Creator: CorelDRAW X8 -->
<svg xmlns="http://www.w3.org/2000/svg" xml:space="preserve" width="167.781mm" height="53.7249mm" version="1.1" style="shape-rendering:geometricPrecision; text-rendering:geometricPrecision; image-rendering:optimizeQuality; fill-rule:evenodd; clip-rule:evenodd"
viewBox="0 0 1136 364"
 xmlns:xlink="http://www.w3.org/1999/xlink">
 <defs>
  <style type="text/css">
   <![CDATA[
    .fil9 {fill:none;fill-rule:nonzero}
    .fil6 {fill:#CCCCCC}
    .fil3 {fill:white}
    .fil7 {fill:black;fill-rule:nonzero}
    .fil10 {fill:white;fill-rule:nonzero}
    .fil11 {fill:#FEFEFE;fill-rule:nonzero;fill-opacity:0.701961}
    .fil2 {fill:url(#id1)}
    .fil5 {fill:url(#id2)}
    .fil4 {fill:url(#id3)}
    .fil0 {fill:url(#id4)}
    .fil1 {fill:url(#id5)}
    .fil8 {fill:url(#id6);fill-rule:nonzero}
   ]]>
  </style>
    <clipPath id="id0" style="clip-rule:nonzero">
     <path d="M1093 256c2,0 5,0 8,0 2,0 5,0 8,0 3,-1 6,-1 8,-2 3,-1 6,-2 8,-3 2,-1 3,-2 5,-3l-9 -15c-1,0 -1,-1 -1,-1 0,0 -1,0 -1,-1 0,0 0,0 0,0 0,0 0,0 -1,0 0,0 0,0 0,0 0,0 -1,0 -1,0l0 0 0 1 -1 0c-1,0 -1,1 -2,1 0,0 -1,0 -1,0 -1,0 -1,1 -2,1 -1,0 -1,0 -2,0 -2,0 -3,0 -4,-1 -2,-1 -3,-2 -4,-3 -1,-1 -1,-2 -2,-4 0,-1 0,-3 0,-4l0 -61 28 0 0 -19 -28 0 0 -34 -16 0c-2,0 -3,0 -4,1 -1,0 -1,1 -1,2l-8 31 -18 3 0 12c0,1 0,1 0,2 1,0 1,1 1,1l0 0c1,0 1,1 2,1 0,0 1,0 1,0l13 0 0 63c0,3 0,5 0,7 1,3 1,5 2,7 0,2 1,3 2,5 1,2 3,3 4,5 1,1 3,2 4,3 2,1 4,2 6,3 2,1 4,1 6,2zm-672 -95l-9 0 0 -67 -33 0 0 160 33 0 0 -70 12 0c2,0 4,0 5,0 2,1 3,1 4,2 2,0 3,1 4,2 1,1 2,2 3,3l37 57 0 0c0,1 1,2 1,2 0,0 1,1 1,1l0 0c0,0 1,1 1,1 1,0 1,1 1,1 1,0 1,0 2,0 1,1 1,1 2,1 1,0 1,0 2,0 1,0 2,0 3,0l29 0 -47 -72c-1,-2 -2,-3 -3,-4 -1,-1 -2,-2 -3,-3 -1,-1 -2,-2 -3,-2 -1,-1 -3,-2 -4,-2l-5 -2 5 -3c1,0 1,-1 2,-1 1,-1 2,-2 3,-2l0 0c1,-1 2,-2 3,-3 0,-1 1,-2 2,-3l46 -63 -28 0c-2,0 -4,0 -5,1 -1,0 -3,0 -4,1 -1,0 -2,1 -3,2 -1,0 -2,1 -3,3l-37 54c-1,2 -3,3 -6,5 -2,1 -5,1 -8,1zm176 -20c-4,-1 -8,-1 -12,-1 -5,0 -9,0 -13,1 -4,1 -7,2 -11,3 -3,1 -7,3 -10,5 -3,2 -5,4 -8,6 -2,3 -5,6 -7,9 -2,3 -3,6 -5,10 -1,3 -2,7 -3,11 -1,4 -1,8 -1,13 0,4 0,9 1,13 1,4 2,8 3,11 2,4 3,7 5,10 2,3 5,6 7,9 3,2 5,4 8,6 3,2 7,4 10,5 4,1 7,2 11,3 4,1 9,1 13,1 4,0 8,0 12,-1 4,-1 8,-2 11,-3 4,-1 7,-3 10,-5 3,-2 6,-4 8,-6l0 0c3,-3 5,-6 7,-9 2,-3 4,-6 5,-10 1,-3 2,-7 3,-11 1,-4 1,-9 1,-13 0,-5 0,-9 -1,-13 -1,-4 -2,-8 -3,-11 -1,-4 -3,-7 -5,-10 -2,-3 -4,-6 -7,-9 -2,-2 -5,-4 -8,-6 -3,-2 -6,-4 -10,-5 -3,-1 -7,-2 -11,-3zm-1 92c-3,1 -7,2 -11,2 -5,0 -9,-1 -12,-2 -3,-2 -6,-4 -8,-8 -3,-3 -4,-7 -5,-11 -1,-5 -2,-10 -2,-16 0,-6 1,-11 2,-16 1,-4 2,-8 5,-11 2,-4 5,-6 8,-8 3,-1 7,-2 12,-2 4,0 8,1 11,2 4,2 7,4 9,8 2,3 3,7 4,11 1,5 2,10 2,16 0,6 -1,11 -2,16 -1,4 -2,8 -4,11 -2,4 -5,6 -9,8zm70 -91l0 112 31 0 0 -81 0 0c2,-2 4,-4 5,-5 2,-1 4,-2 6,-3 1,-1 3,-2 5,-3 2,0 5,-1 7,-1 3,0 5,1 7,2 3,1 5,2 6,4 2,2 3,4 4,7 0,2 1,5 1,8l0 72 30 0 0 -72c0,-3 0,-6 -1,-9 0,-3 -1,-5 -2,-8l0 0c0,-3 -1,-5 -3,-7 -1,-2 -2,-4 -4,-6 -1,-2 -3,-4 -5,-5 -2,-2 -4,-3 -6,-4 -3,-1 -5,-2 -8,-2 -3,-1 -5,-1 -8,-1 -2,0 -4,0 -6,0 -1,0 -3,1 -4,1 -2,0 -3,1 -5,1l0 0c-1,1 -3,1 -4,2 -1,0 -2,1 -4,2 -1,1 -2,1 -3,2l0 0c-1,1 -2,2 -4,3 -1,1 -2,2 -3,3l-3 3 -3 -11c0,-1 -1,-1 -1,-2l0 0c0,0 -1,-1 -1,-1 -1,0 -1,-1 -2,-1l0 0c-1,0 -1,0 -2,0l-20 0zm198 23c0,0 1,-1 1,-1l7 -11c-2,-1 -4,-3 -6,-4l0 0c-1,-1 -3,-2 -4,-3 -2,0 -3,-1 -5,-2 -2,0 -3,-1 -5,-2 -2,0 -4,-1 -6,-1 -2,0 -3,-1 -5,-1 -2,0 -4,0 -6,0 -4,0 -8,0 -11,1 -3,0 -6,1 -9,2 -3,1 -5,2 -8,3 -2,1 -4,3 -6,4 -1,2 -3,4 -4,6 -2,1 -3,3 -4,5 -1,2 -1,5 -2,7 0,2 0,4 0,7 0,2 0,5 0,7 1,2 1,4 2,5 1,2 1,4 2,5 1,2 2,3 4,4 1,1 2,2 3,3 2,1 3,2 5,3 1,1 3,2 4,2 2,1 4,2 5,2 2,1 4,2 5,2 2,0 3,1 5,2 2,0 3,0 5,1 2,1 3,1 4,2 2,0 3,1 4,2 1,0 2,1 3,2 1,1 2,2 3,4 0,1 0,2 0,4 0,1 0,1 0,2 0,1 0,2 -1,2 0,1 0,2 -1,3l0 0c0,0 -1,1 -2,2 0,0 -1,1 -2,1 -1,1 -2,1 -3,1 -1,1 -2,1 -4,1l0 0c-1,0 -2,0 -4,0 -2,0 -4,0 -5,0 -2,0 -4,-1 -5,-1 -2,-1 -3,-1 -4,-2 -1,0 -2,-1 -3,-1l-5 -3c-1,0 -2,-1 -2,-1 -1,0 -2,0 -3,0 -1,0 -1,0 -2,0 -1,0 -1,0 -2,1l0 0c0,0 -1,0 -1,1 -1,0 -1,1 -1,2l-7 11c0,0 1,1 1,1 2,1 3,2 5,3 1,1 3,1 4,2 2,1 4,1 6,2 1,1 3,1 5,2 2,0 4,1 6,1 2,0 4,1 6,1 1,0 3,0 5,0 4,0 8,0 11,-1 4,0 7,-1 10,-2 3,-1 6,-2 8,-3 2,-1 5,-3 7,-4 1,-2 3,-4 5,-6 1,-2 2,-4 3,-6 1,-3 2,-5 3,-7 0,-3 0,-6 0,-8 0,-3 0,-5 0,-7 -1,-1 -1,-3 -2,-5 -1,-1 -1,-3 -2,-4l0 0c-1,-1 -2,-2 -3,-3l0 0c-2,-2 -3,-3 -4,-4 -2,0 -3,-1 -5,-2 -1,-1 -3,-2 -4,-2 -2,-1 -4,-2 -5,-2 -2,-1 -4,-1 -5,-2 -2,0 -3,-1 -5,-1 -2,-1 -3,-1 -5,-2 -1,0 -3,-1 -4,-2 -1,0 -3,-1 -4,-2 -1,0 -2,-1 -3,-2 -1,-1 -2,-2 -2,-3 -1,-1 -1,-3 -1,-4 0,-2 0,-4 1,-5 1,-2 2,-3 4,-4 1,-1 3,-2 5,-3 2,0 4,0 6,0 2,0 3,0 5,0 1,0 3,0 4,1 2,0 3,1 4,1l0 0c1,0 2,1 3,1l5 3c1,0 2,0 2,0 1,0 2,0 2,0 1,0 2,0 2,0 0,0 1,0 1,0 0,0 1,-1 1,-1zm65 89l0 -112 -30 0 0 112 30 0zm3 -143c1,-1 1,-3 1,-4 0,-1 0,-2 -1,-4 0,-1 0,-2 -1,-3l0 0c0,-1 -1,-2 -1,-3 -1,-1 -2,-2 -3,-3 -1,-1 -2,-1 -3,-2 -1,-1 -2,-1 -3,-2 -1,0 -2,0 -3,-1 -2,0 -3,0 -4,0 -1,0 -3,0 -4,0 -1,1 -2,1 -3,1 -1,1 -2,1 -3,2 -1,1 -2,1 -3,2 -1,1 -2,2 -2,3 -1,1 -2,2 -2,3 0,1 -1,2 -1,3 0,2 0,3 0,4 0,1 0,3 0,4 0,1 1,2 1,3 0,1 1,2 2,3 0,1 1,2 2,3 1,0 2,1 3,2 1,0 2,1 3,2 1,0 2,0 3,1 1,0 3,0 4,0 1,0 2,0 4,0 1,-1 2,-1 3,-1l0 0c1,-1 2,-2 3,-2 1,-1 2,-2 3,-2 1,-1 2,-2 3,-3 0,-1 1,-2 1,-3 1,-1 1,-2 1,-3zm96 54c1,0 1,-1 1,-1l7 -11c-2,-1 -3,-3 -6,-4l0 0c-1,-1 -2,-2 -4,-3 -1,0 -3,-1 -5,-2 -1,0 -3,-1 -5,-2 -2,0 -3,-1 -5,-1 -2,0 -4,-1 -6,-1 -2,0 -4,0 -6,0 -4,0 -7,0 -11,1 -3,0 -6,1 -9,2 -3,1 -5,2 -7,3 -3,1 -5,3 -6,4 -2,2 -4,4 -5,6 -1,1 -3,3 -3,5 -1,2 -2,5 -2,7 -1,2 -1,4 -1,7 0,2 0,5 0,7 1,2 1,4 2,5 1,2 2,4 3,5 1,2 2,3 3,4 1,1 2,2 4,3 1,1 2,2 4,3 2,1 3,2 5,2 1,1 3,2 5,2 1,1 3,2 5,2 1,0 3,1 5,2 1,0 3,0 4,1 2,1 3,1 5,2 1,0 2,1 3,2 2,0 3,1 4,2 1,1 1,2 2,4 0,1 1,2 1,4 0,1 0,1 -1,2 0,1 0,2 0,2 -1,1 -1,2 -2,3l0 0c0,0 -1,1 -1,2 -1,0 -2,1 -3,1 -1,1 -2,1 -3,1 -1,1 -2,1 -3,1l0 0c-2,0 -3,0 -5,0 -2,0 -3,0 -5,0 -2,0 -3,-1 -5,-1 -1,-1 -3,-1 -4,-2 -1,0 -2,-1 -3,-1l-5 -3c-1,0 -1,-1 -2,-1 -1,0 -2,0 -2,0 -1,0 -2,0 -3,0 0,0 -1,0 -1,1l0 0c-1,0 -1,0 -2,1 0,0 -1,1 -1,2l-7 11c0,0 1,1 2,1 1,1 2,2 4,3 1,1 3,1 5,2 1,1 3,1 5,2 2,1 4,1 5,2 2,0 4,1 6,1 2,0 4,1 6,1 2,0 4,0 6,0 4,0 7,0 11,-1 3,0 6,-1 9,-2 3,-1 6,-2 8,-3 3,-1 5,-3 7,-4 2,-2 3,-4 5,-6 1,-2 3,-4 4,-6 1,-3 1,-5 2,-7 0,-3 1,-6 1,-8 0,-3 -1,-5 -1,-7 0,-1 -1,-3 -2,-5 0,-1 -1,-3 -2,-4 -1,-1 -2,-2 -3,-3l0 0c-1,-2 -3,-3 -4,-4 -1,0 -3,-1 -4,-2 -2,-1 -3,-2 -5,-2 -2,-1 -3,-2 -5,-2 -2,-1 -3,-1 -5,-2 -2,0 -3,-1 -5,-1 -1,-1 -3,-1 -4,-2 -2,0 -4,-1 -5,-2 -1,0 -2,-1 -4,-2 -1,0 -2,-1 -3,-2 -1,-1 -2,-2 -2,-3 -1,-1 -1,-3 -1,-4 0,-2 1,-4 1,-5 1,-2 2,-3 4,-4 1,-1 3,-2 5,-3 2,0 4,0 7,0 1,0 3,0 4,0 2,0 3,0 4,1 2,0 3,1 4,1l0 0c1,0 2,1 3,1l6 3c0,0 1,0 2,0 0,0 1,0 2,0 0,0 1,0 1,0 1,0 1,0 1,0 1,0 1,-1 1,-1z"/>
    </clipPath>
  <linearGradient id="id1" gradientUnits="userSpaceOnUse" x1="244.251" y1="53.3542" x2="209.321" y2="27.3805">
   <stop offset="0" style="stop-opacity:1; stop-color:#003399"/>
   <stop offset="1" style="stop-opacity:1; stop-color:#1D3860"/>
  </linearGradient>
  <linearGradient id="id2" gradientUnits="userSpaceOnUse" x1="279.446" y1="335.285" x2="192.906" y2="217.295">
   <stop offset="0" style="stop-opacity:1; stop-color:#56C225"/>
   <stop offset="1" style="stop-opacity:1; stop-color:#398009"/>
  </linearGradient>
  <linearGradient id="id3" gradientUnits="userSpaceOnUse" x1="178.359" y1="301.486" x2="253.594" y2="179.676">
   <stop offset="0" style="stop-opacity:1; stop-color:#77DD00"/>
   <stop offset="1" style="stop-opacity:1; stop-color:#56C225"/>
  </linearGradient>
  <linearGradient id="id4" gradientUnits="userSpaceOnUse" x1="131.956" y1="100.448" x2="33.1177" y2="459.527">
   <stop offset="0" style="stop-opacity:1; stop-color:#C090FF"/>
   <stop offset="1" style="stop-opacity:1; stop-color:#FF72CC"/>
  </linearGradient>
  <linearGradient id="id5" gradientUnits="userSpaceOnUse" x1="140.754" y1="51.5953" x2="-24.0455" y2="386.571">
   <stop offset="0" style="stop-opacity:1; stop-color:#7F51FB"/>
   <stop offset="1" style="stop-opacity:1; stop-color:#D9358A"/>
  </linearGradient>
  <linearGradient id="id6" gradientUnits="userSpaceOnUse" x1="640.335" y1="172.677" x2="644.099" y2="-20.9528">
   <stop offset="0" style="stop-opacity:1; stop-color:black"/>
   <stop offset="1" style="stop-opacity:1; stop-color:#FEFEFE"/>
  </linearGradient>
 </defs>
 <g id="Warstwa_x0020_1">
  <metadata id="CorelCorpID_0Corel-Layer"/>
  <g id="_2393620910528">
   <path class="fil0" d="M10 0l162 0 94 94 0 241c0,6 -4,10 -9,10l-247 0c-6,0 -10,-4 -10,-10l0 -325c0,-6 4,-10 10,-10z"/>
   <path class="fil1" d="M10 0l162 0 62 94 0 241c0,6 -4,10 -10,10l-214 0c-6,0 -10,-4 -10,-10l0 -325c0,-6 4,-10 10,-10z"/>
   <path class="fil2" d="M266 94l-84 0c-5,0 -10,-4 -10,-10l0 -84 94 94z"/>
   <rect class="fil3" x="23" y="110" width="75.3112" height="11.6077" rx="13" ry="33"/>
   <rect class="fil3" x="38" y="145" width="93.3948" height="11.6077" rx="16" ry="33"/>
   <rect class="fil3" x="38" y="181" width="173.191" height="11.6077" rx="30" ry="33"/>
   <rect class="fil3" x="23" y="217" width="60.084" height="11.6077" rx="10" ry="33"/>
   <rect class="fil3" x="39" y="253" width="77.7242" height="11.6077" rx="14" ry="33"/>
   <path class="fil4" d="M178 209l56 0 0 155 -56 0c-12,0 -21,-10 -21,-22l0 -112c0,-12 9,-21 21,-21z"/>
   <path class="fil5" d="M291 209l-57 0 0 155 57 0c11,0 21,-10 21,-22l0 -112c0,-12 -10,-21 -21,-21z"/>
   <polygon class="fil3" points="234,275 234,313 212,329 177,283 202,264 219,287 "/>
   <polygon class="fil6" points="234,275 280,241 298,265 234,313 "/>
   <path class="fil7" d="M1093 256c2,0 5,0 8,0 2,0 5,0 8,0 3,-1 6,-1 8,-2 3,-1 6,-2 8,-3 2,-1 3,-2 5,-3l-9 -15c-1,0 -1,-1 -1,-1 0,0 -1,0 -1,-1 0,0 0,0 0,0 0,0 0,0 -1,0 0,0 0,0 0,0 0,0 -1,0 -1,0l0 0 0 1 -1 0c-1,0 -1,1 -2,1 0,0 -1,0 -1,0 -1,0 -1,1 -2,1 -1,0 -1,0 -2,0 -2,0 -3,0 -4,-1 -2,-1 -3,-2 -4,-3 -1,-1 -1,-2 -2,-4 0,-1 0,-3 0,-4l0 -61 28 0 0 -19 -28 0 0 -34 -16 0c-2,0 -3,0 -4,1 -1,0 -1,1 -1,2l-8 31 -18 3 0 12c0,1 0,1 0,2 1,0 1,1 1,1l0 0c1,0 1,1 2,1 0,0 1,0 1,0l13 0 0 63c0,3 0,5 0,7 1,3 1,5 2,7 0,2 1,3 2,5 1,2 3,3 4,5 1,1 3,2 4,3 2,1 4,2 6,3 2,1 4,1 6,2zm-672 -95l-9 0 0 -67 -33 0 0 160 33 0 0 -70 12 0c2,0 4,0 5,0 2,1 3,1 4,2 2,0 3,1 4,2 1,1 2,2 3,3l37 57 0 0c0,1 1,2 1,2 0,0 1,1 1,1l0 0c0,0 1,1 1,1 1,0 1,1 1,1 1,0 1,0 2,0 1,1 1,1 2,1 1,0 1,0 2,0 1,0 2,0 3,0l29 0 -47 -72c-1,-2 -2,-3 -3,-4 -1,-1 -2,-2 -3,-3 -1,-1 -2,-2 -3,-2 -1,-1 -3,-2 -4,-2l-5 -2 5 -3c1,0 1,-1 2,-1 1,-1 2,-2 3,-2l0 0c1,-1 2,-2 3,-3 0,-1 1,-2 2,-3l46 -63 -28 0c-2,0 -4,0 -5,1 -1,0 -3,0 -4,1 -1,0 -2,1 -3,2 -1,0 -2,1 -3,3l-37 54c-1,2 -3,3 -6,5 -2,1 -5,1 -8,1zm176 -20c-4,-1 -8,-1 -12,-1 -5,0 -9,0 -13,1 -4,1 -7,2 -11,3 -3,1 -7,3 -10,5 -3,2 -5,4 -8,6 -2,3 -5,6 -7,9 -2,3 -3,6 -5,10 -1,3 -2,7 -3,11 -1,4 -1,8 -1,13 0,4 0,9 1,13 1,4 2,8 3,11 2,4 3,7 5,10 2,3 5,6 7,9 3,2 5,4 8,6 3,2 7,4 10,5 4,1 7,2 11,3 4,1 9,1 13,1 4,0 8,0 12,-1 4,-1 8,-2 11,-3 4,-1 7,-3 10,-5 3,-2 6,-4 8,-6l0 0c3,-3 5,-6 7,-9 2,-3 4,-6 5,-10 1,-3 2,-7 3,-11 1,-4 1,-9 1,-13 0,-5 0,-9 -1,-13 -1,-4 -2,-8 -3,-11 -1,-4 -3,-7 -5,-10 -2,-3 -4,-6 -7,-9 -2,-2 -5,-4 -8,-6 -3,-2 -6,-4 -10,-5 -3,-1 -7,-2 -11,-3zm-1 92c-3,1 -7,2 -11,2 -5,0 -9,-1 -12,-2 -3,-2 -6,-4 -8,-8 -3,-3 -4,-7 -5,-11 -1,-5 -2,-10 -2,-16 0,-6 1,-11 2,-16 1,-4 2,-8 5,-11 2,-4 5,-6 8,-8 3,-1 7,-2 12,-2 4,0 8,1 11,2 4,2 7,4 9,8 2,3 3,7 4,11 1,5 2,10 2,16 0,6 -1,11 -2,16 -1,4 -2,8 -4,11 -2,4 -5,6 -9,8zm70 -91l0 112 31 0 0 -81 0 0c2,-2 4,-4 5,-5 2,-1 4,-2 6,-3 1,-1 3,-2 5,-3 2,0 5,-1 7,-1 3,0 5,1 7,2 3,1 5,2 6,4 2,2 3,4 4,7 0,2 1,5 1,8l0 72 30 0 0 -72c0,-3 0,-6 -1,-9 0,-3 -1,-5 -2,-8l0 0c0,-3 -1,-5 -3,-7 -1,-2 -2,-4 -4,-6 -1,-2 -3,-4 -5,-5 -2,-2 -4,-3 -6,-4 -3,-1 -5,-2 -8,-2 -3,-1 -5,-1 -8,-1 -2,0 -4,0 -6,0 -1,0 -3,1 -4,1 -2,0 -3,1 -5,1l0 0c-1,1 -3,1 -4,2 -1,0 -2,1 -4,2 -1,1 -2,1 -3,2l0 0c-1,1 -2,2 -4,3 -1,1 -2,2 -3,3l-3 3 -3 -11c0,-1 -1,-1 -1,-2l0 0c0,0 -1,-1 -1,-1 -1,0 -1,-1 -2,-1l0 0c-1,0 -1,0 -2,0l-20 0zm198 23c0,0 1,-1 1,-1l7 -11c-2,-1 -4,-3 -6,-4l0 0c-1,-1 -3,-2 -4,-3 -2,0 -3,-1 -5,-2 -2,0 -3,-1 -5,-2 -2,0 -4,-1 -6,-1 -2,0 -3,-1 -5,-1 -2,0 -4,0 -6,0 -4,0 -8,0 -11,1 -3,0 -6,1 -9,2 -3,1 -5,2 -8,3 -2,1 -4,3 -6,4 -1,2 -3,4 -4,6 -2,1 -3,3 -4,5 -1,2 -1,5 -2,7 0,2 0,4 0,7 0,2 0,5 0,7 1,2 1,4 2,5 1,2 1,4 2,5 1,2 2,3 4,4 1,1 2,2 3,3 2,1 3,2 5,3 1,1 3,2 4,2 2,1 4,2 5,2 2,1 4,2 5,2 2,0 3,1 5,2 2,0 3,0 5,1 2,1 3,1 4,2 2,0 3,1 4,2 1,0 2,1 3,2 1,1 2,2 3,4 0,1 0,2 0,4 0,1 0,1 0,2 0,1 0,2 -1,2 0,1 0,2 -1,3l0 0c0,0 -1,1 -2,2 0,0 -1,1 -2,1 -1,1 -2,1 -3,1 -1,1 -2,1 -4,1l0 0c-1,0 -2,0 -4,0 -2,0 -4,0 -5,0 -2,0 -4,-1 -5,-1 -2,-1 -3,-1 -4,-2 -1,0 -2,-1 -3,-1l-5 -3c-1,0 -2,-1 -2,-1 -1,0 -2,0 -3,0 -1,0 -1,0 -2,0 -1,0 -1,0 -2,1l0 0c0,0 -1,0 -1,1 -1,0 -1,1 -1,2l-7 11c0,0 1,1 1,1 2,1 3,2 5,3 1,1 3,1 4,2 2,1 4,1 6,2 1,1 3,1 5,2 2,0 4,1 6,1 2,0 4,1 6,1 1,0 3,0 5,0 4,0 8,0 11,-1 4,0 7,-1 10,-2 3,-1 6,-2 8,-3 2,-1 5,-3 7,-4 1,-2 3,-4 5,-6 1,-2 2,-4 3,-6 1,-3 2,-5 3,-7 0,-3 0,-6 0,-8 0,-3 0,-5 0,-7 -1,-1 -1,-3 -2,-5 -1,-1 -1,-3 -2,-4l0 0c-1,-1 -2,-2 -3,-3l0 0c-2,-2 -3,-3 -4,-4 -2,0 -3,-1 -5,-2 -1,-1 -3,-2 -4,-2 -2,-1 -4,-2 -5,-2 -2,-1 -4,-1 -5,-2 -2,0 -3,-1 -5,-1 -2,-1 -3,-1 -5,-2 -1,0 -3,-1 -4,-2 -1,0 -3,-1 -4,-2 -1,0 -2,-1 -3,-2 -1,-1 -2,-2 -2,-3 -1,-1 -1,-3 -1,-4 0,-2 0,-4 1,-5 1,-2 2,-3 4,-4 1,-1 3,-2 5,-3 2,0 4,0 6,0 2,0 3,0 5,0 1,0 3,0 4,1 2,0 3,1 4,1l0 0c1,0 2,1 3,1l5 3c1,0 2,0 2,0 1,0 2,0 2,0 1,0 2,0 2,0 0,0 1,0 1,0 0,0 1,-1 1,-1zm65 89l0 -112 -30 0 0 112 30 0zm3 -143c1,-1 1,-3 1,-4 0,-1 0,-2 -1,-4 0,-1 0,-2 -1,-3l0 0c0,-1 -1,-2 -1,-3 -1,-1 -2,-2 -3,-3 -1,-1 -2,-1 -3,-2 -1,-1 -2,-1 -3,-2 -1,0 -2,0 -3,-1 -2,0 -3,0 -4,0 -1,0 -3,0 -4,0 -1,1 -2,1 -3,1 -1,1 -2,1 -3,2 -1,1 -2,1 -3,2 -1,1 -2,2 -2,3 -1,1 -2,2 -2,3 0,1 -1,2 -1,3 0,2 0,3 0,4 0,1 0,3 0,4 0,1 1,2 1,3 0,1 1,2 2,3 0,1 1,2 2,3 1,0 2,1 3,2 1,0 2,1 3,2 1,0 2,0 3,1 1,0 3,0 4,0 1,0 2,0 4,0 1,-1 2,-1 3,-1l0 0c1,-1 2,-2 3,-2 1,-1 2,-2 3,-2 1,-1 2,-2 3,-3 0,-1 1,-2 1,-3 1,-1 1,-2 1,-3zm96 54c1,0 1,-1 1,-1l7 -11c-2,-1 -3,-3 -6,-4l0 0c-1,-1 -2,-2 -4,-3 -1,0 -3,-1 -5,-2 -1,0 -3,-1 -5,-2 -2,0 -3,-1 -5,-1 -2,0 -4,-1 -6,-1 -2,0 -4,0 -6,0 -4,0 -7,0 -11,1 -3,0 -6,1 -9,2 -3,1 -5,2 -7,3 -3,1 -5,3 -6,4 -2,2 -4,4 -5,6 -1,1 -3,3 -3,5 -1,2 -2,5 -2,7 -1,2 -1,4 -1,7 0,2 0,5 0,7 1,2 1,4 2,5 1,2 2,4 3,5 1,2 2,3 3,4 1,1 2,2 4,3 1,1 2,2 4,3 2,1 3,2 5,2 1,1 3,2 5,2 1,1 3,2 5,2 1,0 3,1 5,2 1,0 3,0 4,1 2,1 3,1 5,2 1,0 2,1 3,2 2,0 3,1 4,2 1,1 1,2 2,4 0,1 1,2 1,4 0,1 0,1 -1,2 0,1 0,2 0,2 -1,1 -1,2 -2,3l0 0c0,0 -1,1 -1,2 -1,0 -2,1 -3,1 -1,1 -2,1 -3,1 -1,1 -2,1 -3,1l0 0c-2,0 -3,0 -5,0 -2,0 -3,0 -5,0 -2,0 -3,-1 -5,-1 -1,-1 -3,-1 -4,-2 -1,0 -2,-1 -3,-1l-5 -3c-1,0 -1,-1 -2,-1 -1,0 -2,0 -2,0 -1,0 -2,0 -3,0 0,0 -1,0 -1,1l0 0c-1,0 -1,0 -2,1 0,0 -1,1 -1,2l-7 11c0,0 1,1 2,1 1,1 2,2 4,3 1,1 3,1 5,2 1,1 3,1 5,2 2,1 4,1 5,2 2,0 4,1 6,1 2,0 4,1 6,1 2,0 4,0 6,0 4,0 7,0 11,-1 3,0 6,-1 9,-2 3,-1 6,-2 8,-3 3,-1 5,-3 7,-4 2,-2 3,-4 5,-6 1,-2 3,-4 4,-6 1,-3 1,-5 2,-7 0,-3 1,-6 1,-8 0,-3 -1,-5 -1,-7 0,-1 -1,-3 -2,-5 0,-1 -1,-3 -2,-4 -1,-1 -2,-2 -3,-3l0 0c-1,-2 -3,-3 -4,-4 -1,0 -3,-1 -4,-2 -2,-1 -3,-2 -5,-2 -2,-1 -3,-2 -5,-2 -2,-1 -3,-1 -5,-2 -2,0 -3,-1 -5,-1 -1,-1 -3,-1 -4,-2 -2,0 -4,-1 -5,-2 -1,0 -2,-1 -4,-2 -1,0 -2,-1 -3,-2 -1,-1 -2,-2 -2,-3 -1,-1 -1,-3 -1,-4 0,-2 1,-4 1,-5 1,-2 2,-3 4,-4 1,-1 3,-2 5,-3 2,0 4,0 7,0 1,0 3,0 4,0 2,0 3,0 4,1 2,0 3,1 4,1l0 0c1,0 2,1 3,1l6 3c0,0 1,0 2,0 0,0 1,0 2,0 0,0 1,0 1,0 1,0 1,0 1,0 1,0 1,-1 1,-1z"/>
   <g style="clip-path:url(#id0)">
    <g>
     <path id="1" class="fil8" d="M415 159l6 0c5,0 10,-2 12,-6l37 -54c2,-3 5,-5 7,-6 3,-1 6,-1 10,-1l33 0 -49 67c-2,2 -3,4 -5,6 -2,1 -4,2 -6,4 3,1 5,2 8,4 2,2 4,4 6,7l50 77 -34 0c-2,0 -4,0 -6,-1 -1,0 -3,0 -4,-1 -1,-1 -2,-1 -3,-2 0,-1 -1,-2 -2,-3l-37 -58c-2,-2 -3,-3 -6,-4 -2,-1 -4,-1 -8,-1l-9 0 0 70 -39 0 0 -165 39 0 0 67zm170 -22c9,0 17,2 24,5 8,2 14,6 19,12 5,5 9,11 12,19 3,7 5,15 5,25 0,9 -2,18 -5,25 -3,8 -7,14 -12,19 -5,6 -11,10 -19,12 -7,3 -15,5 -24,5 -9,0 -17,-2 -25,-5 -7,-2 -13,-6 -19,-12 -5,-5 -9,-11 -12,-19 -3,-7 -4,-16 -4,-25 0,-10 1,-18 4,-25 3,-8 7,-14 12,-19 6,-6 12,-10 19,-12 8,-3 16,-5 25,-5zm0 96c8,0 14,-3 18,-9 4,-6 5,-14 5,-26 0,-12 -1,-20 -5,-26 -4,-6 -10,-8 -18,-8 -8,0 -15,2 -18,8 -4,6 -6,14 -6,26 0,12 2,20 6,26 3,6 10,9 18,9zm79 24l0 -118 22 0c2,0 4,1 5,2 2,1 3,2 3,4l2 7c3,-2 5,-4 7,-6 3,-2 5,-3 8,-4 3,-2 6,-3 9,-3 3,-1 7,-2 11,-2 6,0 12,2 17,4 5,2 9,5 12,9 4,4 6,9 8,14 2,6 2,12 2,18l0 75 -35 0 0 -75c0,-6 -1,-10 -4,-13 -2,-3 -6,-5 -11,-5 -4,0 -8,1 -11,3 -4,2 -7,4 -10,7l0 83 -35 0zm203 -92c-1,1 -2,2 -3,3 -1,1 -2,1 -4,1 -1,0 -3,0 -5,-1 -1,-1 -3,-2 -5,-2 -2,-1 -4,-2 -6,-3 -3,0 -6,-1 -9,-1 -4,0 -8,1 -10,3 -2,1 -4,4 -4,7 0,2 1,4 3,5 1,2 3,3 6,4 2,1 5,2 9,3 3,1 6,2 10,3 3,2 6,3 10,5 3,1 6,3 8,6 3,2 5,5 6,8 2,4 3,8 3,13 0,5 -1,11 -3,16 -2,5 -6,9 -10,12 -4,4 -9,7 -15,9 -6,2 -14,3 -22,3 -4,0 -8,-1 -12,-1 -4,-1 -7,-2 -11,-3 -4,-2 -7,-3 -11,-5 -3,-2 -5,-4 -8,-6l8 -13c1,-1 3,-3 4,-3 1,-1 3,-2 5,-2 2,0 4,1 6,2 1,1 3,2 5,3 2,1 4,2 7,3 2,0 5,1 9,1 3,0 5,0 7,-1 2,-1 4,-1 5,-2 1,-1 2,-2 2,-4 1,-1 1,-2 1,-3 0,-3 -1,-5 -2,-6 -2,-2 -4,-3 -7,-4 -2,-1 -5,-2 -8,-3 -4,-1 -7,-2 -10,-3 -4,-1 -7,-3 -10,-5 -4,-1 -7,-3 -9,-6 -3,-3 -5,-6 -7,-10 -1,-3 -2,-8 -2,-13 0,-5 1,-10 3,-15 2,-4 5,-8 9,-11 4,-4 8,-7 14,-9 6,-2 13,-3 21,-3 4,0 8,1 12,2 4,0 8,1 11,3 3,1 7,3 10,5 2,2 5,4 7,6l-8 12zm64 -26l0 118 -35 0 0 -118 35 0zm4 -32c0,3 0,6 -1,8 -1,2 -3,5 -5,6 -2,2 -4,4 -7,5 -2,1 -5,2 -8,2 -3,0 -6,-1 -8,-2 -3,-1 -5,-3 -7,-5 -2,-1 -3,-4 -4,-6 -1,-2 -2,-5 -2,-8 0,-3 1,-5 2,-8 1,-2 2,-5 4,-6 2,-2 4,-4 7,-5 2,-1 5,-1 8,-1 3,0 6,0 8,1 3,1 5,3 7,5 2,1 4,4 5,6 1,3 1,5 1,8zm96 58c0,1 -1,2 -2,3 -1,1 -3,1 -4,1 -2,0 -4,0 -5,-1 -2,-1 -4,-2 -6,-2 -2,-1 -4,-2 -6,-3 -3,0 -5,-1 -8,-1 -5,0 -8,1 -11,3 -2,1 -3,4 -3,7 0,2 0,4 2,5 2,2 4,3 6,4 3,1 6,2 9,3 3,1 6,2 10,3 3,2 7,3 10,5 3,1 6,3 9,6 2,2 4,5 6,8 1,4 2,8 2,13 0,5 -1,11 -3,16 -2,5 -5,9 -10,12 -4,4 -9,7 -15,9 -6,2 -13,3 -21,3 -4,0 -8,-1 -12,-1 -4,-1 -8,-2 -12,-3 -4,-2 -7,-3 -10,-5 -3,-2 -6,-4 -8,-6l8 -13c1,-1 2,-3 3,-3 2,-1 3,-2 6,-2 2,0 3,1 5,2 2,1 3,2 5,3 2,1 4,2 7,3 2,0 6,1 9,1 3,0 6,0 7,-1 2,-1 4,-1 5,-2 1,-1 2,-2 2,-4 1,-1 1,-2 1,-3 0,-3 -1,-5 -2,-6 -2,-2 -4,-3 -6,-4 -3,-1 -6,-2 -9,-3 -3,-1 -7,-2 -10,-3 -4,-1 -7,-3 -10,-5 -4,-1 -6,-3 -9,-6 -3,-3 -5,-6 -6,-10 -2,-3 -3,-8 -3,-13 0,-5 1,-10 3,-15 2,-4 5,-8 9,-11 4,-4 9,-7 14,-9 6,-2 13,-3 21,-3 4,0 8,1 12,2 4,0 8,1 11,3 4,1 7,3 10,5 3,2 5,4 7,6l-8 12zm70 94c-6,0 -11,-1 -15,-3 -4,-1 -8,-4 -11,-7 -3,-3 -5,-6 -7,-11 -1,-4 -2,-8 -2,-14l0 -60 -10 0c-2,0 -3,-1 -4,-2 -2,-1 -2,-3 -2,-5l0 -14 18 -3 7 -29c1,-4 4,-6 8,-6l18 0 0 35 29 0 0 24 -29 0 0 58c0,3 1,5 2,7 2,1 3,2 6,2 1,0 2,0 3,0 1,0 2,-1 2,-1 1,0 2,-1 2,-1 1,0 1,0 2,0 1,0 2,0 3,0 0,1 1,2 2,3l10 17c-4,3 -9,5 -15,7 -6,2 -11,3 -17,3z"/>
    </g>
   </g>
   <path class="fil9" d="M1093 256c2,0 5,0 8,0 2,0 5,0 8,0 3,-1 6,-1 8,-2 3,-1 6,-2 8,-3 2,-1 3,-2 5,-3l-9 -15c-1,0 -1,-1 -1,-1 0,0 -1,0 -1,-1 0,0 0,0 0,0 0,0 0,0 -1,0 0,0 0,0 0,0 0,0 -1,0 -1,0l0 0 0 1 -1 0c-1,0 -1,1 -2,1 0,0 -1,0 -1,0 -1,0 -1,1 -2,1 -1,0 -1,0 -2,0 -2,0 -3,0 -4,-1 -2,-1 -3,-2 -4,-3 -1,-1 -1,-2 -2,-4 0,-1 0,-3 0,-4l0 -61 28 0 0 -19 -28 0 0 -34 -16 0c-2,0 -3,0 -4,1 -1,0 -1,1 -1,2l-8 31 -18 3 0 12c0,1 0,1 0,2 1,0 1,1 1,1l0 0c1,0 1,1 2,1 0,0 1,0 1,0l13 0 0 63c0,3 0,5 0,7 1,3 1,5 2,7 0,2 1,3 2,5 1,2 3,3 4,5 1,1 3,2 4,3 2,1 4,2 6,3 2,1 4,1 6,2zm-672 -95l-9 0 0 -67 -33 0 0 160 33 0 0 -70 12 0c2,0 4,0 5,0 2,1 3,1 4,2 2,0 3,1 4,2 1,1 2,2 3,3l37 57 0 0c0,1 1,2 1,2 0,0 1,1 1,1l0 0c0,0 1,1 1,1 1,0 1,1 1,1 1,0 1,0 2,0 1,1 1,1 2,1 1,0 1,0 2,0 1,0 2,0 3,0l29 0 -47 -72c-1,-2 -2,-3 -3,-4 -1,-1 -2,-2 -3,-3 -1,-1 -2,-2 -3,-2 -1,-1 -3,-2 -4,-2l-5 -2 5 -3c1,0 1,-1 2,-1 1,-1 2,-2 3,-2l0 0c1,-1 2,-2 3,-3 0,-1 1,-2 2,-3l46 -63 -28 0c-2,0 -4,0 -5,1 -1,0 -3,0 -4,1 -1,0 -2,1 -3,2 -1,0 -2,1 -3,3l-37 54c-1,2 -3,3 -6,5 -2,1 -5,1 -8,1zm176 -20c-4,-1 -8,-1 -12,-1 -5,0 -9,0 -13,1 -4,1 -7,2 -11,3 -3,1 -7,3 -10,5 -3,2 -5,4 -8,6 -2,3 -5,6 -7,9 -2,3 -3,6 -5,10 -1,3 -2,7 -3,11 -1,4 -1,8 -1,13 0,4 0,9 1,13 1,4 2,8 3,11 2,4 3,7 5,10 2,3 5,6 7,9 3,2 5,4 8,6 3,2 7,4 10,5 4,1 7,2 11,3 4,1 9,1 13,1 4,0 8,0 12,-1 4,-1 8,-2 11,-3 4,-1 7,-3 10,-5 3,-2 6,-4 8,-6l0 0c3,-3 5,-6 7,-9 2,-3 4,-6 5,-10 1,-3 2,-7 3,-11 1,-4 1,-9 1,-13 0,-5 0,-9 -1,-13 -1,-4 -2,-8 -3,-11 -1,-4 -3,-7 -5,-10 -2,-3 -4,-6 -7,-9 -2,-2 -5,-4 -8,-6 -3,-2 -6,-4 -10,-5 -3,-1 -7,-2 -11,-3zm-1 92c-3,1 -7,2 -11,2 -5,0 -9,-1 -12,-2 -3,-2 -6,-4 -8,-8 -3,-3 -4,-7 -5,-11 -1,-5 -2,-10 -2,-16 0,-6 1,-11 2,-16 1,-4 2,-8 5,-11 2,-4 5,-6 8,-8 3,-1 7,-2 12,-2 4,0 8,1 11,2 4,2 7,4 9,8 2,3 3,7 4,11 1,5 2,10 2,16 0,6 -1,11 -2,16 -1,4 -2,8 -4,11 -2,4 -5,6 -9,8zm70 -91l0 112 31 0 0 -81 0 0c2,-2 4,-4 5,-5 2,-1 4,-2 6,-3 1,-1 3,-2 5,-3 2,0 5,-1 7,-1 3,0 5,1 7,2 3,1 5,2 6,4 2,2 3,4 4,7 0,2 1,5 1,8l0 72 30 0 0 -72c0,-3 0,-6 -1,-9 0,-3 -1,-5 -2,-8l0 0c0,-3 -1,-5 -3,-7 -1,-2 -2,-4 -4,-6 -1,-2 -3,-4 -5,-5 -2,-2 -4,-3 -6,-4 -3,-1 -5,-2 -8,-2 -3,-1 -5,-1 -8,-1 -2,0 -4,0 -6,0 -1,0 -3,1 -4,1 -2,0 -3,1 -5,1l0 0c-1,1 -3,1 -4,2 -1,0 -2,1 -4,2 -1,1 -2,1 -3,2l0 0c-1,1 -2,2 -4,3 -1,1 -2,2 -3,3l-3 3 -3 -11c0,-1 -1,-1 -1,-2l0 0c0,0 -1,-1 -1,-1 -1,0 -1,-1 -2,-1l0 0c-1,0 -1,0 -2,0l-20 0zm198 23c0,0 1,-1 1,-1l7 -11c-2,-1 -4,-3 -6,-4l0 0c-1,-1 -3,-2 -4,-3 -2,0 -3,-1 -5,-2 -2,0 -3,-1 -5,-2 -2,0 -4,-1 -6,-1 -2,0 -3,-1 -5,-1 -2,0 -4,0 -6,0 -4,0 -8,0 -11,1 -3,0 -6,1 -9,2 -3,1 -5,2 -8,3 -2,1 -4,3 -6,4 -1,2 -3,4 -4,6 -2,1 -3,3 -4,5 -1,2 -1,5 -2,7 0,2 0,4 0,7 0,2 0,5 0,7 1,2 1,4 2,5 1,2 1,4 2,5 1,2 2,3 4,4 1,1 2,2 3,3 2,1 3,2 5,3 1,1 3,2 4,2 2,1 4,2 5,2 2,1 4,2 5,2 2,0 3,1 5,2 2,0 3,0 5,1 2,1 3,1 4,2 2,0 3,1 4,2 1,0 2,1 3,2 1,1 2,2 3,4 0,1 0,2 0,4 0,1 0,1 0,2 0,1 0,2 -1,2 0,1 0,2 -1,3l0 0c0,0 -1,1 -2,2 0,0 -1,1 -2,1 -1,1 -2,1 -3,1 -1,1 -2,1 -4,1l0 0c-1,0 -2,0 -4,0 -2,0 -4,0 -5,0 -2,0 -4,-1 -5,-1 -2,-1 -3,-1 -4,-2 -1,0 -2,-1 -3,-1l-5 -3c-1,0 -2,-1 -2,-1 -1,0 -2,0 -3,0 -1,0 -1,0 -2,0 -1,0 -1,0 -2,1l0 0c0,0 -1,0 -1,1 -1,0 -1,1 -1,2l-7 11c0,0 1,1 1,1 2,1 3,2 5,3 1,1 3,1 4,2 2,1 4,1 6,2 1,1 3,1 5,2 2,0 4,1 6,1 2,0 4,1 6,1 1,0 3,0 5,0 4,0 8,0 11,-1 4,0 7,-1 10,-2 3,-1 6,-2 8,-3 2,-1 5,-3 7,-4 1,-2 3,-4 5,-6 1,-2 2,-4 3,-6 1,-3 2,-5 3,-7 0,-3 0,-6 0,-8 0,-3 0,-5 0,-7 -1,-1 -1,-3 -2,-5 -1,-1 -1,-3 -2,-4l0 0c-1,-1 -2,-2 -3,-3l0 0c-2,-2 -3,-3 -4,-4 -2,0 -3,-1 -5,-2 -1,-1 -3,-2 -4,-2 -2,-1 -4,-2 -5,-2 -2,-1 -4,-1 -5,-2 -2,0 -3,-1 -5,-1 -2,-1 -3,-1 -5,-2 -1,0 -3,-1 -4,-2 -1,0 -3,-1 -4,-2 -1,0 -2,-1 -3,-2 -1,-1 -2,-2 -2,-3 -1,-1 -1,-3 -1,-4 0,-2 0,-4 1,-5 1,-2 2,-3 4,-4 1,-1 3,-2 5,-3 2,0 4,0 6,0 2,0 3,0 5,0 1,0 3,0 4,1 2,0 3,1 4,1l0 0c1,0 2,1 3,1l5 3c1,0 2,0 2,0 1,0 2,0 2,0 1,0 2,0 2,0 0,0 1,0 1,0 0,0 1,-1 1,-1zm65 89l0 -112 -30 0 0 112 30 0zm3 -143c1,-1 1,-3 1,-4 0,-1 0,-2 -1,-4 0,-1 0,-2 -1,-3l0 0c0,-1 -1,-2 -1,-3 -1,-1 -2,-2 -3,-3 -1,-1 -2,-1 -3,-2 -1,-1 -2,-1 -3,-2 -1,0 -2,0 -3,-1 -2,0 -3,0 -4,0 -1,0 -3,0 -4,0 -1,1 -2,1 -3,1 -1,1 -2,1 -3,2 -1,1 -2,1 -3,2 -1,1 -2,2 -2,3 -1,1 -2,2 -2,3 0,1 -1,2 -1,3 0,2 0,3 0,4 0,1 0,3 0,4 0,1 1,2 1,3 0,1 1,2 2,3 0,1 1,2 2,3 1,0 2,1 3,2 1,0 2,1 3,2 1,0 2,0 3,1 1,0 3,0 4,0 1,0 2,0 4,0 1,-1 2,-1 3,-1l0 0c1,-1 2,-2 3,-2 1,-1 2,-2 3,-2 1,-1 2,-2 3,-3 0,-1 1,-2 1,-3 1,-1 1,-2 1,-3zm96 54c1,0 1,-1 1,-1l7 -11c-2,-1 -3,-3 -6,-4l0 0c-1,-1 -2,-2 -4,-3 -1,0 -3,-1 -5,-2 -1,0 -3,-1 -5,-2 -2,0 -3,-1 -5,-1 -2,0 -4,-1 -6,-1 -2,0 -4,0 -6,0 -4,0 -7,0 -11,1 -3,0 -6,1 -9,2 -3,1 -5,2 -7,3 -3,1 -5,3 -6,4 -2,2 -4,4 -5,6 -1,1 -3,3 -3,5 -1,2 -2,5 -2,7 -1,2 -1,4 -1,7 0,2 0,5 0,7 1,2 1,4 2,5 1,2 2,4 3,5 1,2 2,3 3,4 1,1 2,2 4,3 1,1 2,2 4,3 2,1 3,2 5,2 1,1 3,2 5,2 1,1 3,2 5,2 1,0 3,1 5,2 1,0 3,0 4,1 2,1 3,1 5,2 1,0 2,1 3,2 2,0 3,1 4,2 1,1 1,2 2,4 0,1 1,2 1,4 0,1 0,1 -1,2 0,1 0,2 0,2 -1,1 -1,2 -2,3l0 0c0,0 -1,1 -1,2 -1,0 -2,1 -3,1 -1,1 -2,1 -3,1 -1,1 -2,1 -3,1l0 0c-2,0 -3,0 -5,0 -2,0 -3,0 -5,0 -2,0 -3,-1 -5,-1 -1,-1 -3,-1 -4,-2 -1,0 -2,-1 -3,-1l-5 -3c-1,0 -1,-1 -2,-1 -1,0 -2,0 -2,0 -1,0 -2,0 -3,0 0,0 -1,0 -1,1l0 0c-1,0 -1,0 -2,1 0,0 -1,1 -1,2l-7 11c0,0 1,1 2,1 1,1 2,2 4,3 1,1 3,1 5,2 1,1 3,1 5,2 2,1 4,1 5,2 2,0 4,1 6,1 2,0 4,1 6,1 2,0 4,0 6,0 4,0 7,0 11,-1 3,0 6,-1 9,-2 3,-1 6,-2 8,-3 3,-1 5,-3 7,-4 2,-2 3,-4 5,-6 1,-2 3,-4 4,-6 1,-3 1,-5 2,-7 0,-3 1,-6 1,-8 0,-3 -1,-5 -1,-7 0,-1 -1,-3 -2,-5 0,-1 -1,-3 -2,-4 -1,-1 -2,-2 -3,-3l0 0c-1,-2 -3,-3 -4,-4 -1,0 -3,-1 -4,-2 -2,-1 -3,-2 -5,-2 -2,-1 -3,-2 -5,-2 -2,-1 -3,-1 -5,-2 -2,0 -3,-1 -5,-1 -1,-1 -3,-1 -4,-2 -2,0 -4,-1 -5,-2 -1,0 -2,-1 -4,-2 -1,0 -2,-1 -3,-2 -1,-1 -2,-2 -2,-3 -1,-1 -1,-3 -1,-4 0,-2 1,-4 1,-5 1,-2 2,-3 4,-4 1,-1 3,-2 5,-3 2,0 4,0 7,0 1,0 3,0 4,0 2,0 3,0 4,1 2,0 3,1 4,1l0 0c1,0 2,1 3,1l6 3c0,0 1,0 2,0 0,0 1,0 2,0 0,0 1,0 1,0 1,0 1,0 1,0 1,0 1,-1 1,-1z"/>
   <path class="fil10" d="M36 24l0 36 2 0c1,0 2,0 2,0 1,0 1,-1 1,-1l9 -13c0,-1 1,-1 2,-1 0,-1 1,-1 2,-1l12 0 -11 16c-1,1 -1,1 -2,2 -1,0 -1,1 -2,1 1,1 2,3 3,4l13 22 -12 0c-1,0 -2,0 -3,-1 0,0 -1,-1 -1,-2l-9 -15c0,-1 -1,-2 -1,-2 -1,0 -1,0 -2,0l-3 0 0 20 -13 0 0 -65 13 0zm52 65c-2,0 -4,0 -5,-1 -2,0 -3,-1 -4,-2 -2,-1 -2,-3 -3,-4 -1,-2 -1,-4 -1,-6l0 -23 -4 0c0,0 -1,0 -1,0 -1,-1 -1,-2 -1,-2l0 -6 7 -1 3 -11c0,-1 1,-2 3,-2l6 0 0 13 11 0 0 9 -11 0 0 22c0,1 1,2 1,3 1,1 1,1 2,1 1,0 1,0 2,0 0,0 0,0 0,-1 1,0 1,0 1,0 0,0 1,0 1,0 0,0 1,0 1,0 0,0 0,1 1,1l4 6c-2,2 -4,3 -6,3 -2,1 -4,1 -7,1z"/>
   <path class="fil11" d="M416 156l4 0c2,0 5,0 6,-1 2,-1 3,-2 4,-3l37 -54c1,-2 3,-3 4,-4 1,-2 3,-2 4,-3 2,-1 3,-1 5,-1l0 0c2,-1 4,-1 6,-1l38 0 -52 71c-1,1 -2,2 -3,4 -1,1 -2,2 -3,2l0 0c0,1 -1,2 -2,2l0 0c2,1 3,2 4,3 2,1 3,2 4,3 1,2 3,3 4,5l52 80 -39 0c-1,0 -2,0 -3,0 -1,0 -2,0 -3,0 -1,0 -2,0 -3,-1 0,0 -1,0 -2,-1 0,0 -1,0 -2,-1 0,0 -1,-1 -1,-1l0 0c-1,-1 -1,-1 -2,-2 0,-1 -1,-1 -1,-2l0 0 -37 -57c-1,-1 -2,-2 -2,-2 -1,-1 -2,-1 -2,-2 -1,0 -2,0 -3,-1 -2,0 -3,0 -5,0l-7 0 0 70 -43 0 0 -170 43 0 0 67zm4 5l-9 0 0 -67 -33 0 0 160 33 0 0 -70 12 0c2,0 4,0 5,0 2,1 3,1 5,2 1,0 2,1 3,2 1,1 2,2 3,3l37 57 0 0c1,1 1,2 1,2 1,0 1,1 1,1l0 0c1,0 1,1 1,1 1,0 1,1 2,1 0,0 1,0 1,0 1,1 1,1 2,1 1,0 1,0 2,0 1,0 2,0 3,0l30 0 -48 -72c-1,-2 -2,-3 -3,-4 -1,-1 -2,-2 -3,-3 -1,-1 -2,-2 -3,-2 -1,-1 -3,-2 -4,-2l-5 -2 5 -3c1,0 2,-1 3,-1 0,-1 1,-2 2,-2l0 0c1,-1 2,-2 3,-3 1,-1 1,-2 2,-3l46 -63 -28 0c-2,0 -3,0 -5,1 -1,0 -3,0 -4,1 -1,0 -2,1 -3,2 -1,0 -2,1 -3,3l-37 54c-1,2 -3,3 -6,5 -2,1 -5,1 -8,1zm164 -26c5,0 9,0 13,1 4,1 8,2 12,3 4,2 8,4 11,6 3,2 6,4 9,7 3,3 5,6 7,9 2,3 4,7 6,11l0 0c1,4 2,8 3,12 1,4 1,9 1,14 0,5 0,9 -1,14 -1,4 -2,8 -3,12 -2,4 -4,8 -6,11 -2,3 -4,6 -7,9 -3,3 -6,5 -9,7 -3,3 -7,4 -11,6 -4,1 -8,2 -12,3 -4,1 -8,1 -13,1 -5,0 -9,0 -13,-1l0 0c-5,-1 -9,-2 -12,-3 -4,-2 -8,-3 -11,-6 -3,-2 -7,-4 -9,-7 -3,-3 -6,-6 -8,-9 -2,-3 -4,-7 -5,-11l0 0c-2,-4 -3,-8 -4,-12 0,-5 -1,-9 -1,-14 0,-5 1,-10 1,-14 1,-4 2,-8 4,-12l0 0c1,-4 3,-8 5,-11 2,-3 5,-6 8,-9 2,-3 6,-5 9,-7 3,-2 7,-4 11,-6 3,-1 7,-2 12,-3 4,-1 8,-1 13,-1zm12 6c-4,-1 -8,-1 -12,-1 -4,0 -9,0 -12,1 -4,1 -8,2 -12,3 -3,1 -6,3 -9,5 -3,2 -6,4 -9,6 -2,3 -5,6 -7,9 -1,3 -3,6 -5,10 -1,3 -2,7 -3,11 0,4 -1,8 -1,13 0,4 1,9 1,13 1,4 2,8 3,11 2,4 4,7 5,10 2,3 5,6 7,9 3,2 6,4 9,6 3,2 6,4 9,5 4,1 8,2 12,3 3,1 8,1 12,1 4,0 8,0 12,-1 4,-1 8,-2 11,-3 4,-1 7,-3 10,-5 3,-2 6,-4 8,-6l0 0c3,-3 5,-6 7,-9 2,-3 4,-6 5,-10 1,-3 3,-7 3,-11 1,-4 1,-9 1,-13 0,-5 0,-9 -1,-13 0,-4 -2,-8 -3,-11 -1,-4 -3,-7 -5,-10 -2,-3 -4,-6 -7,-9 -2,-2 -5,-4 -8,-6 -3,-2 -6,-4 -10,-5 -3,-1 -7,-2 -11,-3zm-12 89c4,0 7,-1 9,-2 3,-1 5,-3 7,-5 1,-3 3,-6 4,-10 1,-4 1,-9 1,-15 0,-6 0,-11 -1,-15 -1,-4 -3,-7 -4,-10 -2,-2 -4,-4 -7,-5 -2,-1 -5,-2 -9,-2 -4,0 -7,1 -10,2 -2,1 -5,3 -6,5 -2,3 -3,6 -4,10 -1,4 -1,9 -1,15 0,6 0,11 1,15 1,4 2,7 4,10 2,2 4,4 6,5 3,1 6,2 10,2zm12 3c-4,1 -8,2 -12,2 -5,0 -8,-1 -12,-2 -3,-2 -6,-4 -8,-8 -2,-3 -4,-7 -5,-11 -1,-5 -2,-10 -2,-16 0,-6 1,-11 2,-16 1,-4 3,-8 5,-11 2,-4 5,-6 8,-8 4,-1 7,-2 12,-2 4,0 8,1 12,2 3,2 6,4 8,8 2,3 4,7 5,11 1,5 1,10 1,16 0,6 0,11 -1,16 -1,4 -3,8 -5,11 -2,4 -5,6 -8,8zm65 24l0 -120 24 0c1,0 2,0 4,0 1,1 2,1 3,2 1,0 2,1 2,2 1,1 1,2 2,3l1 4 0 -1c2,-1 3,-2 4,-3 1,-1 3,-2 4,-3 1,0 3,-1 4,-2 2,0 3,-1 5,-2 1,0 3,-1 5,-1 1,0 3,-1 5,-1 2,0 4,0 6,0 3,0 6,0 9,1 3,0 6,1 9,3 2,1 5,2 7,4 2,1 4,3 6,5 2,3 4,5 5,7 1,3 2,6 3,9l0 0c1,2 2,5 2,9 1,3 1,6 1,9l0 77 -40 0 0 -77c0,-2 0,-5 -1,-7 -1,-2 -1,-3 -2,-5 -2,-1 -3,-2 -4,-2 -2,-1 -4,-1 -6,-1 -2,0 -4,0 -5,0 -2,1 -3,1 -5,2 -1,1 -3,2 -5,3 -1,1 -2,2 -3,3l0 84 -40 0 0 -2zm5 -115l0 112 30 0 0 -81 0 0c2,-2 4,-4 5,-5 2,-1 4,-2 6,-3 2,-1 4,-2 6,-3 2,0 4,-1 6,-1 3,0 5,1 8,2 2,1 4,2 5,4 2,2 3,4 4,7 1,2 1,5 1,8l0 72 30 0 0 -72c0,-3 0,-6 -1,-9 0,-3 -1,-5 -1,-8l0 0c-1,-3 -2,-5 -3,-7 -2,-2 -3,-4 -5,-6 -1,-2 -3,-4 -5,-5 -2,-2 -4,-3 -6,-4 -3,-1 -5,-2 -8,-2 -2,-1 -5,-1 -8,-1 -2,0 -4,0 -6,0 -1,0 -3,1 -4,1 -2,0 -3,1 -5,1l0 0c-1,1 -2,1 -4,2 -1,0 -2,1 -3,2 -2,1 -3,1 -4,2l0 0c-1,1 -2,2 -3,3 -2,1 -3,2 -4,3l-3 3 -3 -11c0,-1 -1,-1 -1,-2l0 0c0,0 -1,-1 -1,-1 -1,0 -1,-1 -2,-1l0 0c-1,0 -1,0 -2,0l-19 0zm202 24c0,1 -1,2 -1,3 -1,0 -2,1 -2,1 -1,1 -2,1 -3,1 -1,0 -2,1 -2,1 -1,0 -2,-1 -4,-1 -1,0 -2,0 -2,-1l-6 -2c-1,-1 -2,-1 -3,-1l0 0c-1,-1 -2,-1 -3,-1 -1,-1 -2,-1 -4,-1 -1,0 -2,0 -4,0 -2,0 -3,0 -5,0 -1,1 -2,1 -3,2 -1,0 -2,1 -2,2 -1,1 -1,2 -1,3 0,1 0,1 0,2 1,0 1,1 2,1l0 0c0,1 1,2 2,2 1,1 2,1 3,2 1,0 3,1 4,1 1,1 3,1 4,2 2,0 4,1 5,1 2,1 4,1 6,2 1,1 3,1 5,2 1,1 3,2 5,2 2,1 3,2 5,3 1,1 3,3 4,4 2,1 3,3 4,4l0 0c1,2 2,4 3,5 1,2 1,4 2,7 0,2 0,4 0,7 0,3 0,6 0,9 -1,2 -2,5 -3,8 -1,2 -2,5 -4,7 -2,2 -4,5 -6,6 -2,2 -5,4 -8,5 -2,2 -5,3 -8,4 -4,1 -7,2 -11,2 -3,1 -7,1 -11,1 -2,0 -5,0 -7,0 -2,0 -4,-1 -6,-1 -2,0 -4,-1 -6,-1 -2,-1 -4,-1 -6,-2 -2,-1 -4,-1 -5,-2 -2,-1 -4,-2 -6,-3l0 0c-1,-1 -3,-2 -4,-3 -2,-1 -3,-2 -4,-3l-2 -1c1,-2 9,-15 9,-15 1,-1 2,-2 2,-3 1,0 2,-1 3,-2 1,0 2,-1 3,-1 1,0 2,0 3,0 2,0 3,0 4,0 1,0 2,1 3,1l5 3c1,1 2,1 3,2 1,0 2,1 4,1 1,1 2,1 3,1 2,0 4,0 5,0 2,0 3,0 4,0l0 0c1,0 2,0 3,0 0,-1 1,-1 2,-1 0,-1 1,-1 1,-1 1,-1 1,-1 1,-1l0 0c1,-1 1,-1 1,-2 0,0 0,0 0,-1 0,0 1,-1 1,-1 0,-1 -1,-2 -1,-3 0,0 -1,-1 -1,-1 -1,-1 -2,-1 -2,-2 -1,-1 -2,-1 -4,-2 -1,0 -2,-1 -3,-1 -2,-1 -3,-1 -5,-2 -1,0 -3,-1 -5,-1 -2,-1 -4,-1 -5,-2 -2,0 -4,-1 -5,-2 -2,-1 -4,-2 -6,-2 -1,-1 -3,-2 -5,-3 -1,-2 -3,-3 -4,-4 -1,-2 -3,-3 -4,-5 -1,-2 -2,-4 -3,-6 -1,-2 -1,-4 -2,-6 0,-3 0,-6 0,-8 0,-3 0,-6 0,-8 1,-3 2,-5 3,-8 1,-2 2,-4 4,-6 1,-3 3,-4 5,-6 2,-2 5,-4 7,-5 3,-2 5,-3 8,-4 4,-1 7,-2 10,-2 4,-1 8,-1 12,-1 2,0 4,0 6,0 2,0 4,1 6,1 3,1 5,1 6,2 2,0 4,1 6,1 2,1 4,2 5,3 2,1 4,2 5,3 3,2 6,4 8,6l1 1 -9 14zm-5 -1c0,0 1,-1 1,-1l7 -11c-2,-1 -4,-3 -6,-4l0 0c-1,-1 -3,-2 -4,-3 -2,0 -3,-1 -5,-2 -1,0 -3,-1 -5,-2 -2,0 -4,-1 -5,-1 -2,0 -4,-1 -6,-1 -2,0 -4,0 -6,0 -4,0 -8,0 -11,1 -3,0 -6,1 -9,2 -3,1 -5,2 -7,3 -3,1 -5,3 -7,4 -1,2 -3,4 -4,6 -2,1 -3,3 -4,5 0,2 -1,5 -2,7 0,2 0,4 0,7 0,2 0,5 0,7 1,2 1,4 2,5 1,2 2,4 2,5 1,2 2,3 4,4 1,1 2,2 3,3 2,1 3,2 5,3 1,1 3,2 5,2 1,1 3,2 4,2 2,1 4,2 5,2 2,0 4,1 5,2 2,0 4,0 5,1 2,1 3,1 4,2 2,0 3,1 4,2 1,0 3,1 3,2 1,1 2,2 3,4 0,1 1,2 1,4 0,1 0,1 -1,2 0,1 0,2 0,2 -1,1 -1,2 -2,3l0 0c0,0 -1,1 -2,2 0,0 -1,1 -2,1 -1,1 -2,1 -3,1 -1,1 -2,1 -4,1l0 0c-1,0 -2,0 -4,0 -2,0 -4,0 -5,0 -2,0 -4,-1 -5,-1 -1,-1 -3,-1 -4,-2 -1,0 -2,-1 -3,-1l-5 -3c-1,0 -2,-1 -2,-1 -1,0 -2,0 -3,0 -1,0 -1,0 -2,0 -1,0 -1,0 -2,1l0 0c0,0 -1,0 -1,1 0,0 -1,1 -1,2l-7 11c0,0 1,1 2,1 1,1 2,2 4,3 1,1 3,1 5,2 1,1 3,1 5,2 2,1 3,1 5,2 2,0 4,1 6,1 2,0 4,1 6,1 2,0 4,0 6,0 3,0 7,0 11,-1 3,0 6,-1 9,-2 3,-1 6,-2 8,-3 3,-1 5,-3 7,-4 2,-2 3,-4 5,-6 1,-2 2,-4 3,-6 1,-3 2,-5 3,-7 0,-3 0,-6 0,-8 0,-3 0,-5 0,-7 0,-1 -1,-3 -2,-5 0,-1 -1,-3 -2,-4l0 0c-1,-1 -2,-2 -3,-3l0 0c-2,-2 -3,-3 -4,-4 -2,0 -3,-1 -4,-2 -2,-1 -4,-2 -5,-2 -2,-1 -3,-2 -5,-2 -2,-1 -3,-1 -5,-2 -2,0 -3,-1 -5,-1 -1,-1 -3,-1 -5,-2 -1,0 -3,-1 -4,-2 -1,0 -3,-1 -4,-2 -1,0 -2,-1 -3,-2 -1,-1 -2,-2 -2,-3 -1,-1 -1,-3 -1,-4 0,-2 0,-4 1,-5 1,-2 2,-3 4,-4 1,-1 3,-2 5,-3 2,0 4,0 6,0 2,0 4,0 5,0 2,0 3,0 4,1 2,0 3,1 4,1l0 0c1,0 2,1 3,1l6 3c0,0 1,0 2,0 0,0 1,0 2,0 0,0 1,0 1,0 1,0 1,0 1,0 0,0 1,-1 1,-1zm70 -26l0 120 -40 0 0 -122 40 0 0 2zm-5 115l0 -112 -30 0 0 112 30 0zm9 -147c0,2 0,3 0,5 -1,1 -1,3 -2,4 -1,1 -1,3 -2,4 -1,1 -2,2 -3,3 -1,1 -2,2 -4,3 -1,1 -2,2 -4,2l0 0c-1,1 -3,1 -4,2l0 0c-2,0 -3,0 -5,0 -2,0 -3,0 -5,0 -1,-1 -3,-1 -4,-2 -1,0 -3,-1 -4,-2 -1,-1 -2,-2 -3,-3 -2,-1 -2,-2 -3,-3 -1,-1 -2,-3 -3,-4 0,-1 -1,-3 -1,-4 0,-2 0,-3 0,-5 0,-1 0,-3 0,-5 0,-1 1,-3 1,-4 1,-1 2,-3 3,-4 1,-1 1,-2 3,-3 1,-1 2,-2 3,-3 1,-1 3,-2 4,-2l0 0c1,-1 3,-1 4,-2 2,0 3,0 5,0 2,0 3,0 5,0 1,1 3,1 4,2 2,0 3,1 4,2 2,1 3,2 4,3 1,1 2,2 3,3 1,1 1,3 2,4 1,1 1,3 2,4 0,2 0,4 0,5zm-5 4c0,-1 0,-3 0,-4 0,-1 0,-2 0,-4 -1,-1 -1,-2 -2,-3l0 0c0,-1 -1,-2 -1,-3 -1,-1 -2,-2 -3,-3 0,-1 -1,-1 -2,-2 -1,-1 -2,-1 -4,-2 -1,0 -2,0 -3,-1 -1,0 -3,0 -4,0 -1,0 -3,0 -4,0 -1,1 -2,1 -3,1 -1,1 -2,1 -3,2 -1,1 -2,1 -3,2 -1,1 -2,2 -2,3 -1,1 -1,2 -2,3 0,1 -1,2 -1,3 0,2 0,3 0,4 0,1 0,3 0,4 0,1 1,2 1,3 1,1 1,2 2,3 0,1 1,2 2,3 1,0 2,1 3,2 1,0 2,1 3,2 1,0 2,0 3,1 1,0 3,0 4,0 1,0 3,0 4,0 1,-1 2,-1 3,-1l0 0c2,-1 3,-2 4,-2 1,-1 2,-2 2,-2 1,-1 2,-2 3,-3 0,-1 1,-2 2,-3 0,-1 0,-2 1,-3zm101 55c-1,1 -1,2 -2,3 -1,0 -1,1 -2,1 -1,1 -2,1 -2,1 -1,0 -2,1 -3,1 -1,0 -2,-1 -3,-1 -1,0 -2,0 -3,-1l-6 -2c-1,-1 -2,-1 -3,-1l0 0c-1,-1 -2,-1 -3,-1 -1,-1 -2,-1 -3,-1 -2,0 -3,0 -4,0 -2,0 -4,0 -6,0 -1,1 -2,1 -3,2 -1,0 -2,1 -2,2 0,1 -1,2 -1,3 0,1 0,1 1,2 0,0 0,1 1,1l0 0c1,1 1,2 2,2 1,1 2,1 3,2 2,0 3,1 4,1 2,1 3,1 5,2 1,0 3,1 5,1 1,1 3,1 5,2 2,1 3,1 5,2 2,1 3,2 5,2 2,1 3,2 5,3 2,1 3,3 4,4 2,1 3,3 4,4 1,2 2,4 3,5 1,2 2,4 2,7 1,2 1,4 1,7 0,3 -1,6 -1,9 -1,2 -2,5 -3,8 -1,2 -2,5 -4,7 -2,2 -4,5 -6,6 -2,2 -5,4 -7,5 -3,2 -6,3 -9,4 -3,1 -7,2 -11,2 -3,1 -7,1 -11,1 -2,0 -4,0 -6,0 -3,0 -5,-1 -7,-1 -2,0 -4,-1 -6,-1 -2,-1 -4,-1 -6,-2 -2,-1 -3,-1 -5,-2 -2,-1 -4,-2 -5,-3l0 0c-2,-1 -4,-2 -5,-3 -2,-1 -3,-2 -4,-3l-2 -1c2,-2 10,-15 10,-15 0,-1 1,-2 2,-3 0,0 1,-1 2,-1 1,-1 2,-2 3,-2 1,0 2,0 4,0 1,0 2,0 3,0 1,0 2,1 3,1l6 3c1,1 1,1 2,2 2,0 3,1 4,1 1,1 2,1 4,1 1,0 3,0 5,0 1,0 2,0 3,0l0 0c1,0 2,0 3,0 1,-1 1,-1 2,-1 0,-1 1,-1 1,-1 1,-1 1,-1 2,-1l-1 0c1,-1 1,-1 1,-2 0,0 1,0 1,-1 0,0 0,-1 0,-1 0,-1 0,-2 -1,-3 0,0 0,-1 -1,-1 0,-1 -1,-1 -2,-2 -1,-1 -2,-1 -3,-2 -2,0 -3,-1 -4,-1 -2,-1 -3,-1 -5,-2 -1,0 -3,-1 -5,-1 -2,-1 -3,-1 -5,-2 -2,0 -3,-1 -5,-2 -2,-1 -4,-2 -5,-2 -2,-1 -4,-2 -5,-3 -2,-2 -3,-3 -5,-4 -1,-2 -2,-3 -3,-5 -2,-2 -3,-4 -3,-6 -1,-2 -2,-4 -2,-6 -1,-3 -1,-6 -1,-8 0,-3 0,-6 1,-8 0,-3 1,-5 2,-8 1,-2 2,-4 4,-6 2,-3 3,-4 5,-6 2,-2 5,-4 7,-5 3,-2 6,-3 9,-4 3,-1 6,-2 10,-2 3,-1 7,-1 11,-1 2,0 4,0 6,0 3,0 5,1 7,1 2,1 4,1 6,2 2,0 4,1 5,1 2,1 4,2 6,3 1,1 3,2 4,3 3,2 6,4 8,6l2 1 -9 14zm-6 -1c1,0 1,-1 1,-1l7 -11c-1,-1 -3,-3 -5,-4l0 0c-2,-1 -3,-2 -5,-3 -1,0 -3,-1 -5,-2 -1,0 -3,-1 -5,-2 -1,0 -3,-1 -5,-1 -2,0 -4,-1 -6,-1 -2,0 -4,0 -6,0 -4,0 -7,0 -11,1 -3,0 -6,1 -9,2 -2,1 -5,2 -7,3 -2,1 -4,3 -6,4 -2,2 -4,4 -5,6 -1,1 -2,3 -3,5 -1,2 -2,5 -2,7 -1,2 -1,4 -1,7 0,2 0,5 1,7 0,2 0,4 1,5 1,2 2,4 3,5 1,2 2,3 3,4 1,1 2,2 4,3 1,1 3,2 4,3 2,1 3,2 5,2 1,1 3,2 5,2 2,1 3,2 5,2 1,0 3,1 5,2 1,0 3,0 4,1 2,1 3,1 5,2 1,0 2,1 4,2 1,0 2,1 3,2 1,1 2,2 2,4 1,1 1,2 1,4 0,1 0,1 0,2 -1,1 -1,2 -1,2 0,1 -1,2 -1,3l0 0c-1,0 -2,1 -2,2 -1,0 -2,1 -3,1 -1,1 -2,1 -3,1 -1,1 -2,1 -3,1l0 0c-2,0 -3,0 -4,0 -2,0 -4,0 -6,0 -2,0 -3,-1 -5,-1 -1,-1 -2,-1 -4,-2 -1,0 -2,-1 -3,-1l-5 -3c-1,0 -1,-1 -2,-1 -1,0 -2,0 -2,0 -1,0 -2,0 -3,0 0,0 -1,0 -1,1l0 0c-1,0 -1,0 -2,1 0,0 -1,1 -1,2l-7 11c1,0 1,1 2,1 1,1 2,2 4,3 2,1 3,1 5,2 1,1 3,1 5,2 2,1 4,1 6,2 1,0 3,1 5,1 2,0 4,1 6,1 2,0 4,0 6,0 4,0 7,0 11,-1 3,0 6,-1 9,-2 3,-1 6,-2 8,-3 3,-1 5,-3 7,-4 2,-2 4,-4 5,-6 1,-2 3,-4 4,-6 1,-3 1,-5 2,-7 0,-3 1,-6 1,-8 0,-3 -1,-5 -1,-7 0,-1 -1,-3 -1,-5 -1,-1 -2,-3 -3,-4 -1,-1 -2,-2 -3,-3l0 0c-1,-2 -3,-3 -4,-4 -1,0 -3,-1 -4,-2 -2,-1 -3,-2 -5,-2 -2,-1 -3,-2 -5,-2 -1,-1 -3,-1 -5,-2 -1,0 -3,-1 -5,-1 -1,-1 -3,-1 -4,-2 -2,0 -3,-1 -5,-2 -1,0 -2,-1 -3,-2 -2,0 -3,-1 -4,-2 -1,-1 -1,-2 -2,-3 0,-1 -1,-3 -1,-4 0,-2 1,-4 1,-5 1,-2 2,-3 4,-4 1,-1 3,-2 5,-3 2,0 4,0 7,0 1,0 3,0 4,0 2,0 3,0 5,1 1,0 2,1 3,1l0 0c1,0 2,1 3,1l6 3c1,0 1,0 2,0 0,0 1,0 2,0 0,0 1,0 1,0 1,0 1,0 1,0 1,0 1,-1 1,-1zm73 96c-3,0 -6,0 -9,0 -2,-1 -5,-2 -7,-2 -2,-1 -4,-2 -6,-4 -2,-1 -4,-2 -6,-4 -1,-2 -3,-3 -4,-5 -1,-2 -2,-4 -3,-7 -1,-2 -1,-4 -2,-7 0,-2 0,-5 0,-8l0 -58 -8 0c-1,0 -2,0 -3,-1 -1,0 -2,-1 -3,-1 -1,-1 -2,-2 -2,-3l0 0c-1,-2 -1,-3 -1,-4l0 -16 19 -4 7 -27c0,-2 2,-4 3,-6 2,-1 4,-1 7,-1l21 0 0 34 28 0 0 29 -28 0 0 56c0,1 0,2 0,3 1,1 1,1 1,2 1,1 1,1 2,1 0,1 1,1 2,1 1,0 1,0 2,0 0,0 0,0 1,-1 0,0 0,0 1,0 0,0 0,0 0,0l1 -1 1 0 0 0c1,0 1,-1 2,-1 0,0 1,0 1,0 1,0 2,0 2,0 1,1 2,1 2,1l1 0c0,1 0,1 1,2 0,0 1,1 1,1 2,2 10,16 12,19l-2 2c-2,1 -5,3 -8,4 -2,2 -5,3 -8,4 -3,0 -6,1 -9,2 -3,0 -6,0 -9,0zm-8 -5c3,0 5,0 8,0 3,0 5,0 8,0 3,-1 6,-1 9,-2 2,-1 5,-2 7,-3 2,-1 4,-2 5,-3l-9 -15c-1,0 -1,-1 -1,-1 0,0 0,0 -1,-1 0,0 0,0 0,0 0,0 0,0 -1,0 0,0 0,0 0,0 0,0 0,0 -1,0l0 0 0 1 -1 0c-1,0 -1,1 -2,1 0,0 0,0 -1,0 -1,0 -1,1 -2,1 -1,0 -1,0 -2,0 -2,0 -3,0 -4,-1 -2,-1 -3,-2 -4,-3 -1,-1 -1,-2 -2,-4 0,-1 0,-3 0,-4l0 -61 28 0 0 -19 -28 0 0 -34 -16 0c-2,0 -3,0 -4,1 0,0 -1,1 -1,2l-8 31 -18 3 0 12c0,1 0,1 1,2 0,0 0,1 0,1l0 0c1,0 1,1 2,1 0,0 1,0 1,0l13 0 0 63c0,3 0,5 0,7 1,3 1,5 2,7 1,2 1,3 2,5 1,2 3,3 4,5 1,1 3,2 4,3 2,1 4,2 6,3 2,1 4,1 6,2z"/>
  </g>
 </g>
</svg>
