<?xml version="1.0" encoding="UTF-8"?>
<!DOCTYPE svg PUBLIC "-//W3C//DTD SVG 1.1//EN" "http://www.w3.org/Graphics/SVG/1.1/DTD/svg11.dtd">
<!-- Creator: CorelDRAW X8 -->
<svg xmlns="http://www.w3.org/2000/svg" xml:space="preserve" width="234.174mm" height="75.151mm" version="1.1" style="shape-rendering:geometricPrecision; text-rendering:geometricPrecision; image-rendering:optimizeQuality; fill-rule:evenodd; clip-rule:evenodd"
viewBox="0 0 25321 8126"
 xmlns:xlink="http://www.w3.org/1999/xlink">
 <defs>
  <style type="text/css">
   <![CDATA[
    .fil7 {fill:#E6E6E6}
    .fil3 {fill:white}
    .fil6 {fill:white}
    .fil9 {fill:white;fill-rule:nonzero}
    .fil8 {fill:url(#id0)}
    .fil2 {fill:url(#id1)}
    .fil5 {fill:url(#id2)}
    .fil0 {fill:url(#id3)}
    .fil4 {fill:url(#id4)}
    .fil1 {fill:url(#id5)}
   ]]>
  </style>
  <linearGradient id="id0" gradientUnits="userSpaceOnUse" x1="14305.2" y1="3857.61" x2="14389.3" y2="-468.074">
   <stop offset="0" style="stop-opacity:1; stop-color:black"/>
   <stop offset="1" style="stop-opacity:1; stop-color:#FEFEFE"/>
  </linearGradient>
  <linearGradient id="id1" gradientUnits="userSpaceOnUse" x1="4345" y1="1492.78" x2="5125.38" y2="912.51">
   <stop offset="0" style="stop-opacity:1; stop-color:#003299"/>
   <stop offset="1" style="stop-opacity:1; stop-color:#373B61"/>
  </linearGradient>
  <linearGradient id="id2" gradientUnits="userSpaceOnUse" x1="5953.04" y1="7490.31" x2="7886.35" y2="4854.38">
   <stop offset="0" style="stop-opacity:1; stop-color:#56C224"/>
   <stop offset="1" style="stop-opacity:1; stop-color:#378005"/>
  </linearGradient>
  <linearGradient id="id3" gradientUnits="userSpaceOnUse" x1="2947.95" y1="2244" x2="739.841" y2="10265.9">
   <stop offset="0" style="stop-opacity:1; stop-color:#BF8FFF"/>
   <stop offset="1" style="stop-opacity:1; stop-color:#FF72CC"/>
  </linearGradient>
  <linearGradient id="id4" gradientUnits="userSpaceOnUse" x1="3984.57" y1="6735.24" x2="5665.36" y2="4014.01">
   <stop offset="0" style="stop-opacity:1; stop-color:#77DD00"/>
   <stop offset="1" style="stop-opacity:1; stop-color:#56C224"/>
  </linearGradient>
  <linearGradient id="id5" gradientUnits="userSpaceOnUse" x1="3144.47" y1="1152.63" x2="-537.2" y2="8636.08">
   <stop offset="0" style="stop-opacity:1; stop-color:#7E50FA"/>
   <stop offset="1" style="stop-opacity:1; stop-color:#D9338A"/>
  </linearGradient>
 </defs>
 <g id="Warstwa_x0020_1">
  <metadata id="CorelCorpID_0Corel-Layer"/>
  <path class="fil0" d="M222 0l3627 0 2104 2104 0 5386c0,122 -100,222 -222,222l-5509 0c-122,0 -222,-100 -222,-222l0 -7268c0,-122 100,-222 222,-222z"/>
  <path class="fil1" d="M222 0l3627 0 1382 2104 0 5386c0,122 -99,222 -221,222l-4788 0c-122,0 -222,-100 -222,-222l0 -7268c0,-122 100,-222 222,-222z"/>
  <path class="fil2" d="M5953 2104l-1883 0c-122,0 -221,-99 -221,-221l0 -1883 2104 2104z"/>
  <path class="fil3" d="M643 2447l1423 0c71,0 129,58 129,129l0 0c0,72 -58,130 -129,130l-1423 0c-72,0 -130,-58 -130,-130l0 0c0,-71 58,-129 130,-129z"/>
  <path class="fil3" d="M979 3247l1827 0c71,0 130,58 130,130l0 0c0,71 -59,129 -130,129l-1827 0c-71,0 -130,-58 -130,-129l0 0c0,-72 59,-130 130,-130z"/>
  <path class="fil3" d="M979 4048l3610 0c71,0 129,58 129,129l0 0c0,72 -58,130 -129,130l-3610 0c-71,0 -130,-58 -130,-130l0 0c0,-71 59,-129 130,-129z"/>
  <path class="fil3" d="M643 4848l1083 0c71,0 129,58 129,130l0 0c0,71 -58,129 -129,129l-1083 0c-72,0 -130,-58 -130,-129l0 0c0,-72 58,-130 130,-130z"/>
  <path class="fil3" d="M1009 5649l1477 0c71,0 130,58 130,129l0 0c0,72 -59,130 -130,130l-1477 0c-71,0 -130,-58 -130,-130l0 0c0,-71 59,-129 130,-129z"/>
  <path class="fil4" d="M3973 4660l1258 0 0 3466 -1258 0c-261,0 -475,-214 -475,-475l0 -2517c0,-261 214,-474 475,-474z"/>
  <path class="fil5" d="M6490 4660l-1259 0 0 3466 1259 0c261,0 474,-214 474,-475l0 -2517c0,-261 -213,-474 -474,-474z"/>
  <polygon class="fil6" points="5231,6153 5231,6987 4743,7354 3961,6314 4508,5903 4889,6411 "/>
  <polygon class="fil7" points="5231,6153 6250,5388 6651,5921 5231,6987 "/>
  <path class="fil8" d="M9264 3542l137 0c127,0 218,-40 274,-119l830 -1205c45,-65 98,-110 156,-134 58,-23 129,-35 213,-35l744 0 -1093 1492c-39,54 -79,99 -122,134 -42,36 -85,65 -129,90 64,23 124,56 177,97 53,41 101,97 145,166l1113 1711 -764 0c-49,0 -90,-3 -125,-10 -34,-7 -65,-17 -90,-31 -25,-13 -47,-30 -66,-49 -18,-20 -36,-42 -53,-67l-835 -1283c-31,-47 -69,-81 -115,-101 -46,-19 -110,-28 -189,-28l-208 0 0 1569 -855 0 0 -3690 855 0 0 1493zm3802 -471c199,0 380,32 544,94 164,62 305,152 422,268 117,117 208,258 273,425 65,167 97,353 97,561 0,210 -32,398 -97,567 -65,167 -156,310 -273,427 -117,118 -258,208 -422,271 -164,63 -345,95 -544,95 -201,0 -383,-32 -548,-95 -164,-63 -306,-153 -425,-271 -119,-117 -211,-260 -276,-427 -65,-169 -98,-357 -98,-567 0,-208 33,-394 98,-561 65,-167 157,-308 276,-425 119,-116 261,-206 425,-268 165,-62 347,-94 548,-94zm0 2125c180,0 314,-63 399,-190 85,-128 127,-322 127,-582 0,-260 -42,-453 -127,-580 -85,-126 -219,-190 -399,-190 -186,0 -321,64 -408,190 -86,127 -129,320 -129,580 0,260 43,454 129,582 87,127 222,190 408,190zm1767 543l0 -2627 485 0c49,0 91,11 124,33 33,22 55,55 69,99l45 154c51,-48 103,-92 157,-133 54,-41 113,-76 174,-103 62,-28 128,-50 200,-66 72,-16 149,-25 234,-25 143,0 271,26 381,75 111,50 203,119 279,208 76,89 134,194 172,316 39,123 59,256 59,399l0 1670 -785 0 0 -1668c0,-128 -30,-229 -89,-300 -59,-72 -146,-107 -260,-107 -86,0 -167,21 -243,63 -76,42 -149,99 -218,169l0 1843 -784 0zm4540 -2052c-20,32 -41,54 -64,68 -23,13 -52,20 -88,20 -37,0 -74,-8 -111,-24 -37,-17 -77,-33 -120,-52 -43,-19 -92,-36 -146,-52 -54,-16 -116,-24 -185,-24 -99,0 -175,20 -228,57 -54,38 -80,91 -80,158 0,49 17,90 52,122 34,33 80,60 137,85 58,24 123,48 195,70 73,22 147,46 223,73 76,27 150,59 223,95 72,36 137,82 195,135 57,53 103,117 138,193 34,76 51,168 51,274 0,130 -23,250 -71,360 -47,109 -117,205 -210,284 -94,79 -210,141 -347,185 -138,44 -296,65 -475,65 -90,0 -179,-8 -268,-25 -90,-17 -176,-40 -259,-68 -84,-29 -162,-63 -232,-103 -71,-40 -132,-82 -183,-128l183 -290c22,-34 48,-60 78,-80 30,-20 70,-29 119,-29 46,0 87,10 123,30 36,20 75,42 117,66 43,23 92,45 149,66 56,20 127,30 213,30 61,0 113,-7 155,-19 42,-13 76,-30 101,-52 25,-22 44,-46 56,-73 11,-27 17,-55 17,-84 0,-52 -17,-95 -53,-129 -35,-34 -82,-63 -139,-88 -57,-24 -122,-47 -196,-68 -73,-21 -148,-45 -224,-72 -76,-27 -150,-60 -224,-98 -73,-38 -139,-86 -196,-144 -58,-58 -104,-129 -139,-213 -36,-85 -54,-187 -54,-306 0,-112 22,-218 65,-319 43,-100 107,-188 194,-264 86,-76 194,-136 324,-181 129,-45 281,-67 455,-67 95,0 187,9 275,26 89,17 171,41 249,71 78,31 148,67 213,109 64,42 120,87 169,137l-177 273zm1432 -575l0 2627 -784 0 0 -2627 784 0zm92 -719c0,62 -13,121 -38,176 -26,54 -60,102 -104,144 -44,41 -95,74 -153,99 -58,24 -120,37 -186,37 -64,0 -124,-13 -180,-37 -56,-25 -105,-58 -148,-99 -43,-42 -76,-90 -101,-144 -24,-55 -37,-114 -37,-176 0,-64 13,-124 37,-180 25,-55 58,-104 101,-146 43,-43 92,-76 148,-99 56,-24 116,-36 180,-36 66,0 128,12 186,36 58,23 109,56 153,99 44,42 78,91 104,146 25,56 38,116 38,180zm2146 1294c-20,32 -42,54 -64,68 -23,13 -53,20 -88,20 -37,0 -74,-8 -111,-24 -37,-17 -77,-33 -120,-52 -43,-19 -92,-36 -146,-52 -54,-16 -116,-24 -185,-24 -99,0 -175,20 -229,57 -53,38 -80,91 -80,158 0,49 18,90 53,122 34,33 80,60 137,85 58,24 123,48 195,70 73,22 147,46 223,73 76,27 150,59 223,95 72,36 137,82 194,135 58,53 104,117 139,193 34,76 51,168 51,274 0,130 -23,250 -71,360 -47,109 -117,205 -211,284 -93,79 -209,141 -346,185 -138,44 -296,65 -475,65 -90,0 -179,-8 -269,-25 -89,-17 -175,-40 -259,-68 -83,-29 -161,-63 -232,-103 -70,-40 -131,-82 -182,-128l182 -290c22,-34 49,-60 79,-80 30,-20 70,-29 119,-29 45,0 87,10 123,30 36,20 75,42 117,66 42,23 92,45 149,66 56,20 127,30 213,30 61,0 112,-7 155,-19 42,-13 76,-30 101,-52 25,-22 44,-46 56,-73 11,-27 17,-55 17,-84 0,-52 -17,-95 -53,-129 -35,-34 -82,-63 -139,-88 -58,-24 -122,-47 -196,-68 -73,-21 -148,-45 -224,-72 -76,-27 -150,-60 -224,-98 -73,-38 -139,-86 -196,-144 -58,-58 -104,-129 -140,-213 -35,-85 -53,-187 -53,-306 0,-112 22,-218 65,-319 43,-100 107,-188 193,-264 86,-76 194,-136 324,-181 130,-45 282,-67 456,-67 94,0 186,9 275,26 89,17 171,41 249,71 77,31 148,67 212,109 65,42 121,87 170,137l-177 273zm1544 2092c-125,0 -235,-18 -330,-54 -95,-37 -176,-88 -241,-155 -65,-66 -114,-147 -148,-242 -34,-94 -51,-200 -51,-316l0 -1359 -222 0c-41,0 -75,-12 -104,-38 -29,-26 -43,-64 -43,-113l0 -302 417 -82 155 -646c20,-81 77,-122 172,-122l410 0 0 767 638 0 0 536 -638 0 0 1304c0,61 15,110 45,150 29,40 71,60 127,60 29,0 53,-3 73,-9 19,-6 36,-13 50,-21 15,-7 28,-14 41,-20 12,-6 27,-8 44,-8 23,0 43,5 57,16 14,12 29,28 44,52l238 375c-102,76 -215,132 -342,170 -127,38 -257,57 -392,57z"/>
  <path class="fil9" d="M811 540l0 808 44 0c19,0 33,-2 43,-8 10,-5 20,-14 28,-27l189 -282c11,-17 24,-29 39,-37 15,-7 34,-11 57,-11l273 0 -257 356c-13,17 -26,32 -40,44 -15,13 -30,25 -47,35 29,22 54,51 75,87l281 476 -269 0c-23,0 -42,-4 -58,-11 -17,-7 -30,-21 -41,-39l-188 -352c-9,-16 -18,-27 -28,-31 -10,-5 -24,-8 -43,-8l-58 0 0 441 -298 0 0 -1441 298 0zm1160 1456c-48,0 -89,-7 -125,-21 -37,-13 -67,-33 -92,-58 -25,-26 -43,-56 -56,-92 -13,-36 -19,-76 -19,-120l0 -516 -85 0c-16,0 -29,-5 -40,-15 -10,-10 -16,-24 -16,-43l0 -115 159 -31 58 -245c8,-31 30,-47 66,-47l156 0 0 292 242 0 0 204 -242 0 0 495c0,23 5,42 17,57 11,15 27,23 48,23 11,0 20,-2 28,-4 7,-2 13,-5 19,-8 5,-3 10,-5 15,-7 5,-3 10,-4 17,-4 9,0 16,2 22,7 5,4 11,10 16,19l91 143c-39,29 -82,50 -130,65 -48,14 -98,21 -149,21z"/>
 </g>
</svg>
