<svg width="175" height="204" viewBox="0 0 175 204" fill="none" xmlns="http://www.w3.org/2000/svg">
<path fill-rule="evenodd" clip-rule="evenodd" d="M5.57843 0H95.9489L148.386 52.4372V186.877C148.386 190.224 146.155 192.456 143.366 192.456H5.57843C2.23137 192.456 0 190.224 0 186.877V5.57843C0 2.23137 2.23137 0 5.57843 0Z" fill="url(#paint0_linear_5_28)"/>
<path fill-rule="evenodd" clip-rule="evenodd" d="M5.57843 0H95.9489L130.535 52.4372V186.877C130.535 190.224 128.304 192.456 124.957 192.456H5.57843C2.23137 192.456 0 190.224 0 186.877V5.57843C0 2.23137 2.23137 0 5.57843 0Z" fill="url(#paint1_linear_5_28)"/>
<path fill-rule="evenodd" clip-rule="evenodd" d="M148.386 52.4372H101.527C98.7382 52.4372 95.9489 50.2058 95.9489 46.8588V0L148.386 52.4372Z" fill="url(#paint2_linear_5_28)"/>
<path d="M47.5902 61.3627H20.0823C16.0772 61.3627 12.8304 62.8122 12.8304 64.6003C12.8304 66.3884 16.0772 67.8379 20.0823 67.8379H47.5902C51.5954 67.8379 54.8422 66.3884 54.8422 64.6003C54.8422 62.8122 51.5954 61.3627 47.5902 61.3627Z" fill="white"/>
<path d="M64.3722 80.8872H30.1235C25.1941 80.8872 21.198 82.3367 21.198 84.1248C21.198 85.9129 25.1941 87.3625 30.1235 87.3625H64.3722C69.3016 87.3625 73.2976 85.9129 73.2976 84.1248C73.2976 82.3367 69.3016 80.8872 64.3722 80.8872Z" fill="white"/>
<path d="M101.076 100.97H37.9333C28.6907 100.97 21.198 102.419 21.198 104.207C21.198 105.995 28.6907 107.445 37.9333 107.445H101.076C110.319 107.445 117.811 105.995 117.811 104.207C117.811 102.419 110.319 100.97 101.076 100.97Z" fill="white"/>
<path d="M40.7694 121.052H18.4088C15.3279 121.052 12.8304 122.501 12.8304 124.29C12.8304 126.078 15.3279 127.527 18.4088 127.527H40.7694C43.8503 127.527 46.3478 126.078 46.3478 124.29C46.3478 122.501 43.8503 121.052 40.7694 121.052Z" fill="white"/>
<path d="M57.3039 141.134H29.5657C25.2524 141.134 21.7559 142.584 21.7559 144.372C21.7559 146.16 25.2524 147.609 29.5657 147.609H57.3039C61.6172 147.609 65.1137 146.16 65.1137 144.372C65.1137 142.584 61.6172 141.134 57.3039 141.134Z" fill="white"/>
<path fill-rule="evenodd" clip-rule="evenodd" d="M99.296 116.589H130.535V203.055H99.296C92.6019 203.055 87.5813 197.476 87.5813 190.782V128.304C87.5813 121.61 92.6019 116.589 99.296 116.589Z" fill="url(#paint3_linear_5_28)"/>
<path fill-rule="evenodd" clip-rule="evenodd" d="M162.332 116.589H130.535V203.055H162.332C168.468 203.055 174.047 197.476 174.047 190.782V128.304C174.047 121.61 168.468 116.589 162.332 116.589Z" fill="url(#paint4_linear_5_28)"/>
<path fill-rule="evenodd" clip-rule="evenodd" d="M130.535 153.407V174.605L118.263 183.53L98.7382 157.869L112.684 147.27L122.168 160.101L130.535 153.407Z" fill="white"/>
<path fill-rule="evenodd" clip-rule="evenodd" d="M130.535 153.407L156.196 134.44L166.237 147.828L130.535 174.605V153.407Z" fill="#CCCCCC"/>
<path d="M20.0823 13.3882V33.4706H21.198C21.7559 33.4706 22.3137 33.4706 22.3137 33.4706C22.8716 33.4706 22.8716 32.9127 22.8716 32.9127L27.8921 25.6608C27.8921 25.1029 28.45 25.1029 29.0078 25.1029C29.0078 24.5451 29.5657 24.5451 30.1235 24.5451H36.8176L30.6813 33.4706C30.1235 34.0284 30.1235 34.0284 29.5657 34.5863C29.0078 34.5863 29.0078 35.1441 28.45 35.1441C29.0078 35.702 29.5657 36.8176 30.1235 37.3755L37.3755 49.648H30.6813C30.1235 49.648 29.5657 49.648 29.0078 49.0902C29.0078 49.0902 28.45 48.5323 28.45 47.9745L23.4294 39.6069C23.4294 39.049 22.8716 38.4912 22.8716 38.4912C22.3137 38.4912 22.3137 38.4912 21.7559 38.4912H20.0823V49.648H12.8304V13.3882H20.0823ZM49.0902 49.648C47.9745 49.648 46.8588 49.648 46.3009 49.0902C45.1853 49.0902 44.6274 48.5323 44.0696 47.9745C42.9539 47.4166 42.9539 46.301 42.396 45.7431C41.8382 44.6274 41.8382 43.5117 41.8382 42.3961V29.5657H39.6068H39.049C38.4911 29.0078 38.4911 28.45 38.4911 28.45V25.1029L42.396 24.5451L44.0696 18.4088C44.0696 17.851 44.6274 17.2931 45.7431 17.2931H49.0902V24.5451H55.2264V29.5657H49.0902V41.8382C49.0902 42.3961 49.648 42.9539 49.648 43.5117C50.2058 44.0696 50.2058 44.0696 50.7637 44.0696C51.3215 44.0696 51.3215 44.0696 51.8794 44.0696C51.8794 44.0696 51.8794 44.0696 51.8794 43.5117C52.4372 43.5117 52.4372 43.5117 52.4372 43.5117H52.9951H53.5529C53.5529 43.5117 53.5529 44.0696 54.1107 44.0696L56.3421 47.4166C55.2264 48.5323 54.1107 49.0902 52.9951 49.0902C51.8794 49.648 50.7637 49.648 49.0902 49.648Z" fill="white"/>
<defs>
<linearGradient id="paint0_linear_5_28" x1="73.6107" y1="56.0342" x2="18.4745" y2="256.344" gradientUnits="userSpaceOnUse">
<stop stop-color="#C090FF"/>
<stop offset="1" stop-color="#FF72CC"/>
</linearGradient>
<linearGradient id="paint1_linear_5_28" x1="78.5186" y1="28.7821" x2="-13.4136" y2="215.646" gradientUnits="userSpaceOnUse">
<stop stop-color="#7F51FB"/>
<stop offset="1" stop-color="#D9358A"/>
</linearGradient>
<linearGradient id="paint2_linear_5_28" x1="136.254" y1="29.7632" x2="116.768" y2="15.274" gradientUnits="userSpaceOnUse">
<stop stop-color="#003399"/>
<stop offset="1" stop-color="#1D3860"/>
</linearGradient>
<linearGradient id="paint3_linear_5_28" x1="99.4963" y1="168.182" x2="141.466" y2="100.231" gradientUnits="userSpaceOnUse">
<stop stop-color="#77DD00"/>
<stop offset="1" stop-color="#56C225"/>
</linearGradient>
<linearGradient id="paint4_linear_5_28" x1="155.887" y1="187.036" x2="107.611" y2="121.216" gradientUnits="userSpaceOnUse">
<stop stop-color="#56C225"/>
<stop offset="1" stop-color="#398009"/>
</linearGradient>
</defs>
</svg>
